<?xml version="1.0" encoding="utf-8"?>
<!-- Generator: Adobe Illustrator 18.1.1, SVG Export Plug-In . SVG Version: 6.00 Build 0)  -->
<svg version="1.1" id="Layer_1" xmlns="http://www.w3.org/2000/svg" xmlns:xlink="http://www.w3.org/1999/xlink" x="0px" y="0px"
	 width="383.3px" height="319.3px" viewBox="0 0 383.3 319.3" enable-background="new 0 0 383.3 319.3" xml:space="preserve">
<g>
	<path fill="#667F8D" d="M196.3,248.2c-42,0-76.1-34.2-76.1-76.1S154.3,96,196.3,96c42,0,76.1,34.2,76.1,76.1
		S238.3,248.2,196.3,248.2z M196.3,99.3c-40.2,0-72.8,32.7-72.8,72.8c0,40.2,32.7,72.8,72.8,72.8c40.2,0,72.8-32.7,72.8-72.8
		C269.1,131.9,236.4,99.3,196.3,99.3z"/>
</g>
<g>
	<path fill="#667F8D" d="M196.3,68.1c-4.4,0-8-3.6-8-8c0-4.4,3.6-8,8-8c4.4,0,8,3.6,8,8C204.3,64.5,200.7,68.1,196.3,68.1z
		 M196.3,55.4c-2.6,0-4.7,2.1-4.7,4.7s2.1,4.7,4.7,4.7s4.7-2.1,4.7-4.7S198.9,55.4,196.3,55.4z"/>
</g>
<g>
	<path fill="#667F8D" d="M196.3,290.2c-4.4,0-8-3.6-8-8s3.6-8,8-8c4.4,0,8,3.6,8,8S200.7,290.2,196.3,290.2z M196.3,277.5
		c-2.6,0-4.7,2.1-4.7,4.7c0,2.6,2.1,4.7,4.7,4.7s4.7-2.1,4.7-4.7C201,279.6,198.9,277.5,196.3,277.5z"/>
</g>
<g>
	<g>
		<path fill="#667F8D" d="M161,163.5c0.1,0,0.3,0.1,0.4,0.2l1.1,1.1c-0.6,0.7-1.3,1.3-2.2,1.7c-0.9,0.4-1.9,0.6-3.1,0.6
			c-1.1,0-2-0.2-2.9-0.5c-0.9-0.4-1.6-0.9-2.2-1.5c-0.6-0.6-1.1-1.4-1.4-2.3c-0.3-0.9-0.5-1.9-0.5-2.9c0-1.1,0.2-2.1,0.5-3
			c0.4-0.9,0.9-1.7,1.5-2.3c0.6-0.6,1.4-1.2,2.3-1.5c0.9-0.4,1.9-0.5,3-0.5c1.1,0,2,0.2,2.8,0.5c0.8,0.3,1.5,0.8,2.1,1.4l-0.9,1.2
			c-0.1,0.1-0.1,0.1-0.2,0.2c-0.1,0.1-0.2,0.1-0.3,0.1c-0.2,0-0.3-0.1-0.5-0.2c-0.2-0.1-0.4-0.2-0.6-0.4c-0.2-0.1-0.6-0.3-0.9-0.4
			c-0.4-0.1-0.8-0.2-1.4-0.2c-0.7,0-1.3,0.1-1.9,0.4c-0.6,0.2-1.1,0.6-1.5,1c-0.4,0.4-0.7,1-1,1.6c-0.2,0.6-0.3,1.3-0.3,2.1
			c0,0.8,0.1,1.5,0.3,2.2c0.2,0.6,0.5,1.2,0.9,1.6c0.4,0.4,0.9,0.8,1.4,1c0.5,0.2,1.1,0.3,1.7,0.3c0.4,0,0.7,0,1-0.1
			c0.3,0,0.6-0.1,0.8-0.2c0.2-0.1,0.5-0.2,0.7-0.3c0.2-0.1,0.4-0.3,0.7-0.5c0.1-0.1,0.1-0.1,0.2-0.1
			C160.9,163.5,160.9,163.5,161,163.5z"/>
	</g>
	<g>
		<path fill="#667F8D" d="M178.3,159.7c0,1.1-0.2,2-0.5,2.9c-0.4,0.9-0.8,1.7-1.5,2.3c-0.6,0.7-1.4,1.2-2.3,1.5
			c-0.9,0.4-1.9,0.6-3,0.6c-1.1,0-2.1-0.2-3-0.6c-0.9-0.4-1.7-0.9-2.3-1.5c-0.6-0.7-1.1-1.4-1.5-2.3c-0.4-0.9-0.5-1.9-0.5-2.9
			c0-1.1,0.2-2,0.5-2.9c0.4-0.9,0.8-1.7,1.5-2.3c0.6-0.7,1.4-1.2,2.3-1.5s1.9-0.6,3-0.6c1.1,0,2.1,0.2,3,0.6s1.7,0.9,2.3,1.5
			c0.6,0.7,1.1,1.4,1.5,2.3C178.1,157.7,178.3,158.6,178.3,159.7z M175.5,159.7c0-0.8-0.1-1.5-0.3-2.1c-0.2-0.6-0.5-1.2-0.9-1.6
			c-0.4-0.4-0.9-0.8-1.4-1c-0.6-0.2-1.2-0.3-1.9-0.3c-0.7,0-1.3,0.1-1.9,0.3c-0.6,0.2-1,0.6-1.4,1c-0.4,0.4-0.7,1-0.9,1.6
			c-0.2,0.6-0.3,1.3-0.3,2.1s0.1,1.5,0.3,2.1c0.2,0.6,0.5,1.2,0.9,1.6c0.4,0.4,0.9,0.8,1.4,1c0.6,0.2,1.2,0.3,1.9,0.3
			c0.7,0,1.3-0.1,1.9-0.3c0.6-0.2,1-0.6,1.4-1c0.4-0.4,0.7-1,0.9-1.6C175.4,161.2,175.5,160.5,175.5,159.7z"/>
	</g>
	<g>
		<path fill="#667F8D" d="M182.1,152.5c0.1,0,0.2,0,0.2,0.1c0.1,0,0.1,0.1,0.2,0.1c0.1,0.1,0.1,0.1,0.2,0.2l7.5,9.6
			c0-0.2,0-0.5-0.1-0.7c0-0.2,0-0.4,0-0.6v-8.7h2.4v14.4h-1.4c-0.2,0-0.4,0-0.5-0.1c-0.1-0.1-0.3-0.2-0.4-0.4l-7.5-9.6
			c0,0.2,0,0.4,0,0.6c0,0.2,0,0.4,0,0.6v8.8h-2.4v-14.4h1.4C181.9,152.5,182,152.5,182.1,152.5z"/>
	</g>
	<g>
		<path fill="#667F8D" d="M205.3,163.5c0.1,0,0.3,0.1,0.4,0.2l1.1,1.1c-0.6,0.7-1.3,1.3-2.2,1.7c-0.9,0.4-1.9,0.6-3.1,0.6
			c-1.1,0-2-0.2-2.9-0.5c-0.9-0.4-1.6-0.9-2.2-1.5c-0.6-0.6-1.1-1.4-1.4-2.3c-0.3-0.9-0.5-1.9-0.5-2.9c0-1.1,0.2-2.1,0.5-3
			c0.4-0.9,0.9-1.7,1.5-2.3c0.6-0.6,1.4-1.2,2.3-1.5c0.9-0.4,1.9-0.5,3-0.5c1.1,0,2,0.2,2.8,0.5c0.8,0.3,1.5,0.8,2.1,1.4l-0.9,1.2
			c-0.1,0.1-0.1,0.1-0.2,0.2c-0.1,0.1-0.2,0.1-0.3,0.1c-0.2,0-0.3-0.1-0.5-0.2c-0.2-0.1-0.4-0.2-0.6-0.4c-0.2-0.1-0.6-0.3-0.9-0.4
			c-0.4-0.1-0.8-0.2-1.4-0.2c-0.7,0-1.3,0.1-1.9,0.4c-0.6,0.2-1.1,0.6-1.5,1c-0.4,0.4-0.7,1-1,1.6c-0.2,0.6-0.3,1.3-0.3,2.1
			c0,0.8,0.1,1.5,0.3,2.2c0.2,0.6,0.5,1.2,0.9,1.6c0.4,0.4,0.9,0.8,1.4,1c0.5,0.2,1.1,0.3,1.7,0.3c0.4,0,0.7,0,1-0.1
			c0.3,0,0.6-0.1,0.8-0.2c0.2-0.1,0.5-0.2,0.7-0.3c0.2-0.1,0.4-0.3,0.7-0.5c0.1-0.1,0.1-0.1,0.2-0.1
			C205.1,163.5,205.2,163.5,205.3,163.5z"/>
	</g>
	<g>
		<path fill="#667F8D" d="M217.8,152.5v2.1h-6.4v4h5v2.1h-5v4.1h6.4v2.1h-9.1v-14.4H217.8z"/>
	</g>
	<g>
		<path fill="#667F8D" d="M222.8,161.8v5.1h-2.7v-14.4h4.7c1,0,1.8,0.1,2.5,0.3c0.7,0.2,1.3,0.5,1.7,0.9c0.5,0.4,0.8,0.9,1,1.5
			c0.2,0.6,0.3,1.2,0.3,1.8c0,0.7-0.1,1.3-0.3,1.9c-0.2,0.6-0.6,1.1-1,1.5s-1,0.7-1.7,1c-0.7,0.2-1.5,0.3-2.4,0.3H222.8z
			 M222.8,159.7h2c0.5,0,0.9-0.1,1.3-0.2c0.4-0.1,0.7-0.3,0.9-0.5c0.2-0.2,0.4-0.5,0.5-0.8c0.1-0.3,0.2-0.7,0.2-1.1
			c0-0.4-0.1-0.7-0.2-1c-0.1-0.3-0.3-0.6-0.5-0.8c-0.2-0.2-0.5-0.4-0.9-0.5c-0.4-0.1-0.8-0.2-1.3-0.2h-2V159.7z"/>
	</g>
	<g>
		<path fill="#667F8D" d="M242.6,152.5v2.2h-4.3v12.2h-2.7v-12.2h-4.3v-2.2H242.6z"/>
	</g>
	<g>
		<path fill="#667F8D" d="M142.4,187.3c0.1,0,0.3,0.1,0.4,0.2l1.1,1.1c-0.6,0.7-1.3,1.3-2.2,1.7c-0.9,0.4-1.9,0.6-3.1,0.6
			c-1.1,0-2-0.2-2.9-0.5s-1.6-0.9-2.2-1.5c-0.6-0.6-1.1-1.4-1.4-2.3c-0.3-0.9-0.5-1.9-0.5-2.9c0-1.1,0.2-2.1,0.5-3
			c0.4-0.9,0.9-1.7,1.5-2.3c0.6-0.6,1.4-1.2,2.3-1.5s1.9-0.5,3-0.5c1.1,0,2,0.2,2.8,0.5c0.8,0.3,1.5,0.8,2.1,1.4l-0.9,1.2
			c-0.1,0.1-0.1,0.1-0.2,0.2c-0.1,0.1-0.2,0.1-0.3,0.1c-0.2,0-0.3-0.1-0.5-0.2c-0.2-0.1-0.4-0.2-0.6-0.4c-0.2-0.1-0.6-0.3-0.9-0.4
			s-0.8-0.2-1.4-0.2c-0.7,0-1.3,0.1-1.9,0.4c-0.6,0.2-1.1,0.6-1.5,1c-0.4,0.4-0.7,1-1,1.6c-0.2,0.6-0.3,1.3-0.3,2.1
			c0,0.8,0.1,1.5,0.3,2.2s0.5,1.2,0.9,1.6c0.4,0.4,0.9,0.8,1.4,1c0.5,0.2,1.1,0.3,1.7,0.3c0.4,0,0.7,0,1-0.1c0.3,0,0.6-0.1,0.8-0.2
			c0.2-0.1,0.5-0.2,0.7-0.3c0.2-0.1,0.4-0.3,0.7-0.5c0.1-0.1,0.1-0.1,0.2-0.1C142.2,187.3,142.3,187.3,142.4,187.3z"/>
	</g>
	<g>
		<path fill="#667F8D" d="M159.6,183.5c0,1.1-0.2,2-0.5,2.9c-0.4,0.9-0.8,1.7-1.5,2.3c-0.6,0.7-1.4,1.2-2.3,1.5
			c-0.9,0.4-1.9,0.6-3,0.6c-1.1,0-2.1-0.2-3-0.6c-0.9-0.4-1.7-0.9-2.3-1.5c-0.6-0.7-1.1-1.4-1.5-2.3c-0.4-0.9-0.5-1.9-0.5-2.9
			c0-1.1,0.2-2,0.5-2.9c0.4-0.9,0.8-1.7,1.5-2.3c0.6-0.7,1.4-1.2,2.3-1.5c0.9-0.4,1.9-0.6,3-0.6c1.1,0,2.1,0.2,3,0.6
			c0.9,0.4,1.7,0.9,2.3,1.5c0.6,0.7,1.1,1.4,1.5,2.3C159.4,181.5,159.6,182.5,159.6,183.5z M156.9,183.5c0-0.8-0.1-1.5-0.3-2.1
			c-0.2-0.6-0.5-1.2-0.9-1.6c-0.4-0.4-0.9-0.8-1.4-1c-0.6-0.2-1.2-0.3-1.9-0.3c-0.7,0-1.3,0.1-1.9,0.3c-0.6,0.2-1,0.6-1.4,1
			c-0.4,0.4-0.7,1-0.9,1.6c-0.2,0.6-0.3,1.3-0.3,2.1c0,0.8,0.1,1.5,0.3,2.1c0.2,0.6,0.5,1.2,0.9,1.6c0.4,0.4,0.9,0.8,1.4,1
			c0.6,0.2,1.2,0.3,1.9,0.3c0.7,0,1.3-0.1,1.9-0.3c0.6-0.2,1-0.6,1.4-1c0.4-0.4,0.7-1,0.9-1.6C156.8,185,156.9,184.3,156.9,183.5z"
			/>
	</g>
	<g>
		<path fill="#667F8D" d="M169.2,185.4c0.1,0.2,0.2,0.5,0.3,0.7c0.1-0.2,0.2-0.5,0.3-0.7c0.1-0.2,0.2-0.5,0.3-0.7l4.3-8
			c0.1-0.1,0.1-0.2,0.2-0.2c0.1-0.1,0.1-0.1,0.2-0.1c0.1,0,0.1,0,0.2,0c0.1,0,0.2,0,0.3,0h2v14.4h-2.4v-9.3c0-0.2,0-0.4,0-0.6
			c0-0.2,0-0.4,0-0.6l-4.3,8.1c-0.1,0.2-0.2,0.3-0.4,0.4c-0.2,0.1-0.3,0.2-0.6,0.2h-0.4c-0.2,0-0.4-0.1-0.6-0.2
			c-0.2-0.1-0.3-0.2-0.4-0.4l-4.4-8.2c0,0.2,0,0.4,0.1,0.6c0,0.2,0,0.4,0,0.6v9.3h-2.4v-14.4h2c0.1,0,0.2,0,0.3,0c0.1,0,0.2,0,0.2,0
			c0.1,0,0.1,0.1,0.2,0.1c0.1,0.1,0.1,0.1,0.2,0.2l4.3,8C169,185,169.2,185.2,169.2,185.4z"/>
	</g>
	<g>
		<path fill="#667F8D" d="M183,185.7v5.1h-2.7v-14.4h4.7c1,0,1.8,0.1,2.5,0.3c0.7,0.2,1.3,0.5,1.7,0.9s0.8,0.9,1,1.5
			c0.2,0.6,0.3,1.2,0.3,1.8c0,0.7-0.1,1.3-0.3,1.9c-0.2,0.6-0.6,1.1-1,1.5c-0.5,0.4-1,0.7-1.7,1c-0.7,0.2-1.5,0.3-2.4,0.3H183z
			 M183,183.6h2c0.5,0,0.9-0.1,1.3-0.2c0.4-0.1,0.7-0.3,0.9-0.5s0.4-0.5,0.5-0.8c0.1-0.3,0.2-0.7,0.2-1.1c0-0.4-0.1-0.7-0.2-1
			c-0.1-0.3-0.3-0.6-0.5-0.8s-0.5-0.4-0.9-0.5c-0.4-0.1-0.8-0.2-1.3-0.2h-2V183.6z"/>
	</g>
	<g>
		<path fill="#667F8D" d="M195.3,188.5h5.8v2.2h-8.4v-14.4h2.7V188.5z"/>
	</g>
	<g>
		<path fill="#667F8D" d="M205.9,190.7h-2.7v-14.4h2.7V190.7z"/>
	</g>
	<g>
		<path fill="#667F8D" d="M221.8,190.7h-2.1c-0.2,0-0.4-0.1-0.6-0.2c-0.2-0.1-0.3-0.3-0.3-0.4l-1.1-2.9h-5.9l-1.1,2.9
			c-0.1,0.2-0.2,0.3-0.3,0.4c-0.2,0.1-0.3,0.2-0.6,0.2h-2.1l5.6-14.4h2.7L221.8,190.7z M212.5,185.3h4.6l-1.7-4.8
			c-0.1-0.2-0.2-0.5-0.3-0.8c-0.1-0.3-0.2-0.6-0.3-0.9c-0.1,0.3-0.2,0.7-0.3,0.9s-0.2,0.5-0.3,0.8L212.5,185.3z"/>
	</g>
	<g>
		<path fill="#667F8D" d="M224.9,176.4c0.1,0,0.2,0,0.2,0.1c0.1,0,0.1,0.1,0.2,0.1c0.1,0.1,0.1,0.1,0.2,0.2l7.5,9.6
			c0-0.2,0-0.5-0.1-0.7c0-0.2,0-0.4,0-0.6v-8.7h2.4v14.4H234c-0.2,0-0.4,0-0.5-0.1s-0.3-0.2-0.4-0.4l-7.5-9.6c0,0.2,0,0.4,0,0.6
			c0,0.2,0,0.4,0,0.6v8.8h-2.4v-14.4h1.4C224.8,176.3,224.9,176.4,224.9,176.4z"/>
	</g>
	<g>
		<path fill="#667F8D" d="M248.1,187.3c0.1,0,0.3,0.1,0.4,0.2l1.1,1.1c-0.6,0.7-1.3,1.3-2.2,1.7c-0.9,0.4-1.9,0.6-3.1,0.6
			c-1.1,0-2-0.2-2.9-0.5c-0.9-0.4-1.6-0.9-2.2-1.5c-0.6-0.6-1.1-1.4-1.4-2.3c-0.3-0.9-0.5-1.9-0.5-2.9c0-1.1,0.2-2.1,0.5-3
			c0.4-0.9,0.9-1.7,1.5-2.3c0.6-0.6,1.4-1.2,2.3-1.5s1.9-0.5,3-0.5c1.1,0,2,0.2,2.8,0.5s1.5,0.8,2.1,1.4l-0.9,1.2
			c-0.1,0.1-0.1,0.1-0.2,0.2c-0.1,0.1-0.2,0.1-0.3,0.1c-0.2,0-0.3-0.1-0.5-0.2c-0.2-0.1-0.4-0.2-0.6-0.4c-0.2-0.1-0.6-0.3-0.9-0.4
			c-0.4-0.1-0.8-0.2-1.4-0.2c-0.7,0-1.3,0.1-1.9,0.4c-0.6,0.2-1.1,0.6-1.5,1c-0.4,0.4-0.7,1-1,1.6c-0.2,0.6-0.3,1.3-0.3,2.1
			c0,0.8,0.1,1.5,0.3,2.2c0.2,0.6,0.5,1.2,0.9,1.6c0.4,0.4,0.9,0.8,1.4,1c0.5,0.2,1.1,0.3,1.7,0.3c0.4,0,0.7,0,1-0.1
			c0.3,0,0.6-0.1,0.8-0.2c0.2-0.1,0.5-0.2,0.7-0.3c0.2-0.1,0.4-0.3,0.7-0.5c0.1-0.1,0.1-0.1,0.2-0.1
			C248,187.3,248,187.3,248.1,187.3z"/>
	</g>
	<g>
		<path fill="#667F8D" d="M260.6,176.3v2.1h-6.4v4h5v2.1h-5v4.1h6.4v2.1h-9.1v-14.4H260.6z"/>
	</g>
</g>
<g>
	<g>
		<path fill="#667F8D" d="M162.7,4.9v1.4h-6.3v4.6h5.4v1.4h-5.4V18h-1.8v-13H162.7z"/>
	</g>
	<g>
		<path fill="#667F8D" d="M164.2,18V8.7h0.9c0.2,0,0.3,0,0.4,0.1c0.1,0.1,0.1,0.2,0.1,0.3l0.1,1.4c0.3-0.6,0.7-1.1,1.2-1.5
			c0.5-0.4,1-0.5,1.6-0.5c0.3,0,0.5,0,0.7,0.1c0.2,0.1,0.4,0.1,0.6,0.2l-0.2,1.2c0,0.2-0.1,0.2-0.3,0.2c-0.1,0-0.2,0-0.4-0.1
			c-0.2-0.1-0.4-0.1-0.7-0.1c-0.6,0-1,0.2-1.4,0.5c-0.4,0.3-0.7,0.8-1,1.4V18H164.2z"/>
	</g>
	<g>
		<path fill="#667F8D" d="M177.9,18h-0.7c-0.2,0-0.3,0-0.4-0.1c-0.1,0-0.2-0.2-0.2-0.3l-0.2-0.9c-0.2,0.2-0.5,0.4-0.7,0.6
			c-0.2,0.2-0.5,0.3-0.7,0.4c-0.3,0.1-0.5,0.2-0.8,0.3c-0.3,0.1-0.6,0.1-1,0.1c-0.4,0-0.7-0.1-1-0.2c-0.3-0.1-0.6-0.3-0.8-0.5
			c-0.2-0.2-0.4-0.5-0.6-0.8c-0.1-0.3-0.2-0.7-0.2-1.1c0-0.4,0.1-0.7,0.3-1.1c0.2-0.3,0.5-0.6,1-0.9s1-0.5,1.8-0.6
			c0.7-0.2,1.6-0.3,2.6-0.3v-0.7c0-0.7-0.2-1.3-0.5-1.6c-0.3-0.4-0.8-0.6-1.4-0.6c-0.4,0-0.7,0.1-1,0.2c-0.3,0.1-0.5,0.2-0.7,0.3
			c-0.2,0.1-0.4,0.2-0.5,0.3c-0.1,0.1-0.3,0.2-0.4,0.2c-0.1,0-0.2,0-0.3-0.1c-0.1-0.1-0.1-0.1-0.2-0.2l-0.3-0.5
			c0.5-0.5,1.1-0.9,1.6-1.1c0.6-0.2,1.2-0.4,2-0.4c0.5,0,1,0.1,1.4,0.3c0.4,0.2,0.7,0.4,1,0.7c0.3,0.3,0.5,0.7,0.6,1.1
			c0.1,0.4,0.2,0.9,0.2,1.4V18z M173.7,17c0.3,0,0.5,0,0.8-0.1c0.2-0.1,0.5-0.1,0.7-0.2c0.2-0.1,0.4-0.2,0.6-0.4
			c0.2-0.2,0.4-0.3,0.6-0.5v-1.9c-0.7,0-1.4,0-1.9,0.1c-0.5,0.1-0.9,0.2-1.3,0.4c-0.3,0.2-0.6,0.3-0.7,0.5s-0.2,0.4-0.2,0.7
			c0,0.2,0,0.5,0.1,0.6c0.1,0.2,0.2,0.3,0.3,0.4c0.1,0.1,0.3,0.2,0.5,0.2S173.5,17,173.7,17z"/>
	</g>
	<g>
		<path fill="#667F8D" d="M180.4,18V8.7h1c0.2,0,0.4,0.1,0.4,0.3l0.1,1c0.4-0.4,0.8-0.8,1.3-1.1c0.5-0.3,1.1-0.4,1.7-0.4
			c0.5,0,0.9,0.1,1.3,0.3c0.4,0.2,0.7,0.4,1,0.7c0.3,0.3,0.5,0.7,0.6,1.1c0.1,0.4,0.2,0.9,0.2,1.4V18h-1.6v-5.9
			c0-0.7-0.2-1.2-0.5-1.6c-0.3-0.4-0.8-0.6-1.5-0.6c-0.5,0-0.9,0.1-1.3,0.3c-0.4,0.2-0.8,0.5-1.2,0.9V18H180.4z"/>
	</g>
	<g>
		<path fill="#667F8D" d="M196.8,10.4c0,0.1-0.1,0.1-0.1,0.2c0,0-0.1,0.1-0.2,0.1c-0.1,0-0.2,0-0.3-0.1c-0.1-0.1-0.2-0.2-0.4-0.2
			c-0.2-0.1-0.4-0.2-0.6-0.3c-0.2-0.1-0.5-0.1-0.9-0.1c-0.4,0-0.8,0.1-1.2,0.2c-0.3,0.2-0.6,0.4-0.9,0.7c-0.2,0.3-0.4,0.7-0.5,1.1
			c-0.1,0.4-0.2,0.9-0.2,1.4c0,0.6,0.1,1.1,0.2,1.5c0.1,0.4,0.3,0.8,0.5,1.1c0.2,0.3,0.5,0.5,0.8,0.7c0.3,0.2,0.7,0.2,1.1,0.2
			c0.4,0,0.7,0,1-0.1c0.3-0.1,0.5-0.2,0.6-0.3c0.2-0.1,0.3-0.2,0.4-0.3c0.1-0.1,0.2-0.1,0.3-0.1c0.1,0,0.2,0.1,0.3,0.2l0.5,0.6
			c-0.4,0.5-0.9,0.9-1.5,1.1c-0.6,0.2-1.2,0.3-1.9,0.3c-0.6,0-1.1-0.1-1.6-0.3c-0.5-0.2-0.9-0.5-1.3-0.9c-0.4-0.4-0.7-0.9-0.9-1.5
			c-0.2-0.6-0.3-1.3-0.3-2c0-0.7,0.1-1.3,0.3-1.9c0.2-0.6,0.5-1.1,0.8-1.5c0.4-0.4,0.8-0.8,1.4-1c0.5-0.2,1.2-0.4,1.9-0.4
			c0.6,0,1.2,0.1,1.7,0.3c0.5,0.2,0.9,0.5,1.3,0.9L196.8,10.4z"/>
	</g>
	<g>
		<path fill="#667F8D" d="M199,18V4.5h1.6V10c0.4-0.4,0.8-0.8,1.3-1c0.5-0.3,1-0.4,1.7-0.4c0.5,0,0.9,0.1,1.3,0.3
			c0.4,0.2,0.7,0.4,1,0.7c0.3,0.3,0.5,0.7,0.6,1.1c0.1,0.4,0.2,0.9,0.2,1.4V18h-1.6v-5.9c0-0.7-0.2-1.2-0.5-1.6
			c-0.3-0.4-0.8-0.6-1.5-0.6c-0.5,0-0.9,0.1-1.3,0.3c-0.4,0.2-0.8,0.5-1.2,0.9V18H199z"/>
	</g>
	<g>
		<path fill="#667F8D" d="M211.3,5.8c0,0.2,0,0.3-0.1,0.4c-0.1,0.1-0.1,0.3-0.3,0.4c-0.1,0.1-0.2,0.2-0.4,0.3
			c-0.1,0.1-0.3,0.1-0.4,0.1c-0.2,0-0.3,0-0.4-0.1c-0.1-0.1-0.3-0.1-0.4-0.3c-0.1-0.1-0.2-0.2-0.3-0.4C209,6.1,209,6,209,5.8
			c0-0.2,0-0.3,0.1-0.5c0.1-0.1,0.1-0.3,0.3-0.4c0.1-0.1,0.2-0.2,0.4-0.3c0.1-0.1,0.3-0.1,0.4-0.1c0.2,0,0.3,0,0.4,0.1
			c0.1,0.1,0.3,0.1,0.4,0.3c0.1,0.1,0.2,0.2,0.3,0.4C211.3,5.5,211.3,5.7,211.3,5.8z M211,8.7V18h-1.6V8.7H211z"/>
	</g>
	<g>
		<path fill="#667F8D" d="M219.1,10.2c-0.1,0.1-0.2,0.2-0.3,0.2c-0.1,0-0.2,0-0.3-0.1c-0.1-0.1-0.3-0.1-0.4-0.2
			c-0.2-0.1-0.4-0.2-0.6-0.2c-0.2-0.1-0.5-0.1-0.8-0.1c-0.3,0-0.5,0-0.7,0.1c-0.2,0.1-0.4,0.2-0.6,0.3c-0.2,0.1-0.3,0.3-0.4,0.4
			c-0.1,0.2-0.1,0.3-0.1,0.5c0,0.2,0.1,0.4,0.2,0.6c0.1,0.2,0.3,0.3,0.5,0.4c0.2,0.1,0.5,0.2,0.8,0.3c0.3,0.1,0.6,0.2,0.9,0.3
			s0.6,0.2,0.9,0.3c0.3,0.1,0.5,0.3,0.8,0.5c0.2,0.2,0.4,0.4,0.5,0.7c0.1,0.3,0.2,0.6,0.2,1c0,0.4-0.1,0.8-0.2,1.2
			c-0.2,0.4-0.4,0.7-0.7,0.9c-0.3,0.3-0.7,0.5-1.1,0.6c-0.4,0.2-0.9,0.2-1.5,0.2c-0.6,0-1.2-0.1-1.7-0.3c-0.5-0.2-1-0.5-1.3-0.8
			l0.4-0.6c0-0.1,0.1-0.1,0.2-0.2c0.1,0,0.2-0.1,0.3-0.1c0.1,0,0.2,0,0.3,0.1c0.1,0.1,0.3,0.2,0.4,0.3c0.2,0.1,0.4,0.2,0.6,0.3
			c0.2,0.1,0.6,0.1,0.9,0.1c0.3,0,0.6,0,0.8-0.1c0.2-0.1,0.4-0.2,0.6-0.3c0.2-0.1,0.3-0.3,0.4-0.5c0.1-0.2,0.1-0.4,0.1-0.6
			c0-0.3-0.1-0.5-0.2-0.6c-0.1-0.2-0.3-0.3-0.5-0.4c-0.2-0.1-0.5-0.2-0.8-0.3c-0.3-0.1-0.6-0.2-0.9-0.3c-0.3-0.1-0.6-0.2-0.9-0.3
			c-0.3-0.1-0.5-0.3-0.8-0.5c-0.2-0.2-0.4-0.4-0.5-0.7c-0.1-0.3-0.2-0.6-0.2-1c0-0.4,0.1-0.7,0.2-1s0.4-0.6,0.6-0.9
			c0.3-0.2,0.6-0.4,1-0.6c0.4-0.1,0.9-0.2,1.4-0.2c0.6,0,1.2,0.1,1.6,0.3c0.5,0.2,0.9,0.5,1.3,0.8L219.1,10.2z"/>
	</g>
	<g>
		<path fill="#667F8D" d="M225.4,8.6c0.6,0,1.1,0.1,1.5,0.3c0.5,0.2,0.9,0.5,1.2,0.8c0.3,0.3,0.6,0.8,0.8,1.3
			c0.2,0.5,0.3,1.1,0.3,1.8c0,0.3,0,0.4-0.1,0.5c-0.1,0.1-0.2,0.1-0.3,0.1h-6.1c0,0.6,0.1,1.1,0.2,1.5c0.1,0.4,0.3,0.8,0.6,1.1
			c0.3,0.3,0.6,0.5,0.9,0.6c0.4,0.1,0.7,0.2,1.2,0.2c0.4,0,0.8,0,1.1-0.1c0.3-0.1,0.5-0.2,0.8-0.3s0.4-0.2,0.5-0.3
			c0.1-0.1,0.3-0.1,0.4-0.1c0.1,0,0.2,0.1,0.3,0.2l0.5,0.6c-0.2,0.2-0.4,0.5-0.7,0.6c-0.3,0.2-0.6,0.3-0.9,0.4
			c-0.3,0.1-0.6,0.2-1,0.3c-0.3,0.1-0.7,0.1-1,0.1c-0.6,0-1.2-0.1-1.8-0.3c-0.5-0.2-1-0.5-1.4-0.9c-0.4-0.4-0.7-0.9-0.9-1.5
			c-0.2-0.6-0.3-1.3-0.3-2.1c0-0.6,0.1-1.2,0.3-1.8c0.2-0.6,0.5-1,0.9-1.5s0.8-0.7,1.4-1C224.1,8.7,224.7,8.6,225.4,8.6z M225.4,9.8
			c-0.8,0-1.4,0.2-1.8,0.7c-0.4,0.5-0.7,1.1-0.8,1.9h5c0-0.4-0.1-0.7-0.2-1c-0.1-0.3-0.3-0.6-0.5-0.8c-0.2-0.2-0.4-0.4-0.7-0.5
			C226.1,9.8,225.8,9.8,225.4,9.8z"/>
	</g>
	<g>
		<path fill="#667F8D" d="M234.9,8.6c0.6,0,1.1,0.1,1.5,0.3c0.5,0.2,0.9,0.5,1.2,0.8c0.3,0.3,0.6,0.8,0.8,1.3
			c0.2,0.5,0.3,1.1,0.3,1.8c0,0.3,0,0.4-0.1,0.5c-0.1,0.1-0.2,0.1-0.3,0.1h-6.1c0,0.6,0.1,1.1,0.2,1.5c0.1,0.4,0.3,0.8,0.6,1.1
			c0.3,0.3,0.6,0.5,0.9,0.6c0.4,0.1,0.7,0.2,1.2,0.2c0.4,0,0.8,0,1.1-0.1c0.3-0.1,0.5-0.2,0.8-0.3s0.4-0.2,0.5-0.3
			c0.1-0.1,0.3-0.1,0.4-0.1c0.1,0,0.2,0.1,0.3,0.2l0.5,0.6c-0.2,0.2-0.4,0.5-0.7,0.6c-0.3,0.2-0.6,0.3-0.9,0.4
			c-0.3,0.1-0.6,0.2-1,0.3c-0.3,0.1-0.7,0.1-1,0.1c-0.6,0-1.2-0.1-1.8-0.3c-0.5-0.2-1-0.5-1.4-0.9c-0.4-0.4-0.7-0.9-0.9-1.5
			c-0.2-0.6-0.3-1.3-0.3-2.1c0-0.6,0.1-1.2,0.3-1.8c0.2-0.6,0.5-1,0.9-1.5s0.8-0.7,1.4-1C233.6,8.7,234.2,8.6,234.9,8.6z M235,9.8
			c-0.8,0-1.4,0.2-1.8,0.7c-0.4,0.5-0.7,1.1-0.8,1.9h5c0-0.4-0.1-0.7-0.2-1c-0.1-0.3-0.3-0.6-0.5-0.8c-0.2-0.2-0.4-0.4-0.7-0.5
			C235.7,9.8,235.3,9.8,235,9.8z"/>
	</g>
	<g>
		<path fill="#667F8D" d="M174.4,35.5c0.1,0.2,0.1,0.3,0.2,0.5c0.1-0.2,0.1-0.3,0.2-0.5c0.1-0.2,0.1-0.3,0.2-0.5l4.4-8
			c0.1-0.1,0.2-0.2,0.2-0.3c0.1,0,0.2,0,0.4,0h1.3v13h-1.5v-9.6c0-0.1,0-0.3,0-0.4c0-0.1,0-0.3,0-0.4l-4.5,8.2
			c-0.2,0.3-0.4,0.4-0.6,0.4h-0.3c-0.3,0-0.5-0.1-0.6-0.4l-4.6-8.2c0,0.2,0,0.3,0,0.5c0,0.2,0,0.3,0,0.4v9.6h-1.5v-13h1.3
			c0.2,0,0.3,0,0.4,0c0.1,0,0.2,0.1,0.2,0.3l4.5,8C174.3,35.2,174.4,35.4,174.4,35.5z"/>
	</g>
	<g>
		<path fill="#667F8D" d="M191.1,39.8h-0.7c-0.2,0-0.3,0-0.4-0.1c-0.1,0-0.2-0.2-0.2-0.3l-0.2-0.9c-0.2,0.2-0.5,0.4-0.7,0.6
			c-0.2,0.2-0.5,0.3-0.7,0.4c-0.3,0.1-0.5,0.2-0.8,0.3c-0.3,0.1-0.6,0.1-1,0.1c-0.4,0-0.7-0.1-1-0.2c-0.3-0.1-0.6-0.3-0.8-0.5
			c-0.2-0.2-0.4-0.5-0.6-0.8c-0.1-0.3-0.2-0.7-0.2-1.1c0-0.4,0.1-0.7,0.3-1.1c0.2-0.3,0.5-0.6,1-0.9s1-0.5,1.8-0.6
			c0.7-0.2,1.6-0.3,2.6-0.3v-0.7c0-0.7-0.2-1.3-0.5-1.6c-0.3-0.4-0.8-0.6-1.4-0.6c-0.4,0-0.7,0.1-1,0.2c-0.3,0.1-0.5,0.2-0.7,0.3
			c-0.2,0.1-0.4,0.2-0.5,0.3c-0.1,0.1-0.3,0.2-0.4,0.2c-0.1,0-0.2,0-0.3-0.1c-0.1-0.1-0.1-0.1-0.2-0.2l-0.3-0.5
			c0.5-0.5,1.1-0.9,1.6-1.1c0.6-0.2,1.2-0.4,2-0.4c0.5,0,1,0.1,1.4,0.3c0.4,0.2,0.7,0.4,1,0.7c0.3,0.3,0.5,0.7,0.6,1.1
			c0.1,0.4,0.2,0.9,0.2,1.4V39.8z M186.9,38.8c0.3,0,0.5,0,0.8-0.1c0.2-0.1,0.5-0.1,0.7-0.2c0.2-0.1,0.4-0.2,0.6-0.4
			c0.2-0.2,0.4-0.3,0.6-0.5v-1.9c-0.7,0-1.4,0-1.9,0.1c-0.5,0.1-0.9,0.2-1.3,0.4c-0.3,0.2-0.6,0.3-0.7,0.5c-0.1,0.2-0.2,0.4-0.2,0.7
			c0,0.2,0,0.5,0.1,0.6c0.1,0.2,0.2,0.3,0.3,0.4s0.3,0.2,0.5,0.2C186.5,38.8,186.7,38.8,186.9,38.8z"/>
	</g>
	<g>
		<path fill="#667F8D" d="M193.5,39.8v-9.2h1c0.2,0,0.4,0.1,0.4,0.3l0.1,1c0.4-0.4,0.8-0.8,1.3-1.1c0.5-0.3,1.1-0.4,1.7-0.4
			c0.5,0,0.9,0.1,1.3,0.3c0.4,0.2,0.7,0.4,1,0.7c0.3,0.3,0.5,0.7,0.6,1.1c0.1,0.4,0.2,0.9,0.2,1.4v5.9h-1.6v-5.9
			c0-0.7-0.2-1.2-0.5-1.6c-0.3-0.4-0.8-0.6-1.5-0.6c-0.5,0-0.9,0.1-1.3,0.3c-0.4,0.2-0.8,0.5-1.2,0.9v6.8H193.5z"/>
	</g>
	<g>
		<path fill="#667F8D" d="M205.1,30.6v5.9c0,0.7,0.2,1.2,0.5,1.6c0.3,0.4,0.8,0.6,1.5,0.6c0.5,0,0.9-0.1,1.3-0.3s0.8-0.5,1.2-0.9
			v-6.8h1.6v9.2h-1c-0.2,0-0.4-0.1-0.4-0.3l-0.1-1c-0.4,0.4-0.9,0.8-1.3,1.1c-0.5,0.3-1.1,0.4-1.7,0.4c-0.5,0-0.9-0.1-1.3-0.3
			c-0.4-0.2-0.7-0.4-1-0.7c-0.3-0.3-0.5-0.7-0.6-1.1c-0.1-0.4-0.2-0.9-0.2-1.4v-5.9H205.1z"/>
	</g>
	<g>
		<path fill="#667F8D" d="M220.6,39.8h-0.7c-0.2,0-0.3,0-0.4-0.1c-0.1,0-0.2-0.2-0.2-0.3l-0.2-0.9c-0.2,0.2-0.5,0.4-0.7,0.6
			c-0.2,0.2-0.5,0.3-0.7,0.4c-0.3,0.1-0.5,0.2-0.8,0.3c-0.3,0.1-0.6,0.1-1,0.1c-0.4,0-0.7-0.1-1-0.2c-0.3-0.1-0.6-0.3-0.8-0.5
			c-0.2-0.2-0.4-0.5-0.5-0.8c-0.1-0.3-0.2-0.7-0.2-1.1c0-0.4,0.1-0.7,0.3-1.1c0.2-0.3,0.5-0.6,1-0.9c0.4-0.3,1-0.5,1.8-0.6
			c0.7-0.2,1.6-0.3,2.6-0.3v-0.7c0-0.7-0.2-1.3-0.5-1.6c-0.3-0.4-0.8-0.6-1.4-0.6c-0.4,0-0.7,0.1-1,0.2c-0.3,0.1-0.5,0.2-0.7,0.3
			c-0.2,0.1-0.4,0.2-0.5,0.3c-0.1,0.1-0.3,0.2-0.4,0.2c-0.1,0-0.2,0-0.3-0.1c-0.1-0.1-0.1-0.1-0.2-0.2l-0.3-0.5
			c0.5-0.5,1.1-0.9,1.6-1.1c0.6-0.2,1.2-0.4,2-0.4c0.5,0,1,0.1,1.4,0.3c0.4,0.2,0.7,0.4,1,0.7c0.3,0.3,0.5,0.7,0.6,1.1
			c0.1,0.4,0.2,0.9,0.2,1.4V39.8z M216.3,38.8c0.3,0,0.5,0,0.8-0.1c0.2-0.1,0.5-0.1,0.7-0.2c0.2-0.1,0.4-0.2,0.6-0.4
			c0.2-0.2,0.4-0.3,0.6-0.5v-1.9c-0.7,0-1.4,0-1.9,0.1c-0.5,0.1-0.9,0.2-1.3,0.4c-0.3,0.2-0.6,0.3-0.7,0.5c-0.1,0.2-0.2,0.4-0.2,0.7
			c0,0.2,0,0.5,0.1,0.6s0.2,0.3,0.3,0.4c0.1,0.1,0.3,0.2,0.5,0.2C215.9,38.8,216.1,38.8,216.3,38.8z"/>
	</g>
	<g>
		<path fill="#667F8D" d="M224.8,26.4v13.4h-1.6V26.4H224.8z"/>
	</g>
</g>
<g>
	<g>
		<path fill="#667F8D" d="M166,310.4c0.1,0,0.2,0,0.3,0.1l0.7,0.8c-0.5,0.6-1.2,1.1-1.9,1.4c-0.8,0.3-1.7,0.5-2.8,0.5
			c-0.9,0-1.8-0.2-2.6-0.5c-0.8-0.3-1.4-0.8-2-1.4c-0.5-0.6-1-1.3-1.3-2.1c-0.3-0.8-0.4-1.7-0.4-2.7c0-1,0.2-1.9,0.5-2.7
			c0.3-0.8,0.8-1.5,1.3-2.1c0.6-0.6,1.3-1,2.1-1.4c0.8-0.3,1.7-0.5,2.7-0.5c1,0,1.8,0.2,2.5,0.4c0.7,0.3,1.3,0.7,1.9,1.2l-0.6,0.8
			c0,0.1-0.1,0.1-0.1,0.2c-0.1,0-0.1,0.1-0.2,0.1c-0.1,0-0.2,0-0.3-0.1c-0.1-0.1-0.2-0.1-0.3-0.2c-0.1-0.1-0.3-0.2-0.4-0.3
			c-0.2-0.1-0.4-0.2-0.6-0.3c-0.2-0.1-0.5-0.2-0.8-0.2c-0.3-0.1-0.6-0.1-1-0.1c-0.7,0-1.3,0.1-1.9,0.4c-0.6,0.2-1.1,0.6-1.5,1
			c-0.4,0.4-0.7,1-1,1.6c-0.2,0.6-0.4,1.4-0.4,2.1c0,0.8,0.1,1.5,0.4,2.2c0.2,0.6,0.6,1.2,1,1.6c0.4,0.4,0.9,0.8,1.4,1
			c0.6,0.2,1.1,0.3,1.8,0.3c0.4,0,0.7,0,1-0.1c0.3,0,0.6-0.1,0.9-0.2c0.3-0.1,0.5-0.2,0.7-0.4c0.2-0.1,0.5-0.3,0.7-0.5
			C165.8,310.4,165.9,310.4,166,310.4z"/>
	</g>
	<g>
		<path fill="#667F8D" d="M169,313v-13.4h1.6v5.4c0.4-0.4,0.8-0.8,1.3-1c0.5-0.3,1-0.4,1.7-0.4c0.5,0,0.9,0.1,1.3,0.3s0.7,0.4,1,0.7
			c0.3,0.3,0.5,0.7,0.6,1.1c0.1,0.4,0.2,0.9,0.2,1.4v5.9h-1.6v-5.9c0-0.7-0.2-1.2-0.5-1.6c-0.3-0.4-0.8-0.6-1.5-0.6
			c-0.5,0-0.9,0.1-1.3,0.3c-0.4,0.2-0.8,0.5-1.2,0.9v6.8H169z"/>
	</g>
	<g>
		<path fill="#667F8D" d="M182.8,303.7c0.6,0,1.1,0.1,1.5,0.3c0.5,0.2,0.9,0.5,1.2,0.8c0.3,0.3,0.6,0.8,0.8,1.3
			c0.2,0.5,0.3,1.1,0.3,1.8c0,0.3,0,0.4-0.1,0.5c-0.1,0.1-0.2,0.1-0.3,0.1h-6.1c0,0.6,0.1,1.1,0.2,1.5c0.1,0.4,0.3,0.8,0.6,1.1
			c0.3,0.3,0.6,0.5,0.9,0.6c0.4,0.1,0.7,0.2,1.2,0.2c0.4,0,0.8,0,1.1-0.1c0.3-0.1,0.5-0.2,0.8-0.3c0.2-0.1,0.4-0.2,0.5-0.3
			c0.1-0.1,0.3-0.1,0.4-0.1c0.1,0,0.2,0.1,0.3,0.2l0.5,0.6c-0.2,0.2-0.4,0.5-0.7,0.6c-0.3,0.2-0.6,0.3-0.9,0.4
			c-0.3,0.1-0.6,0.2-1,0.3c-0.3,0.1-0.7,0.1-1,0.1c-0.6,0-1.2-0.1-1.8-0.3c-0.5-0.2-1-0.5-1.4-0.9c-0.4-0.4-0.7-0.9-0.9-1.5
			c-0.2-0.6-0.3-1.3-0.3-2.1c0-0.6,0.1-1.2,0.3-1.8c0.2-0.6,0.5-1,0.9-1.5c0.4-0.4,0.8-0.7,1.4-1
			C181.5,303.8,182.1,303.7,182.8,303.7z M182.8,304.9c-0.8,0-1.4,0.2-1.8,0.7c-0.4,0.5-0.7,1.1-0.8,1.9h5c0-0.4-0.1-0.7-0.2-1
			c-0.1-0.3-0.3-0.6-0.5-0.8c-0.2-0.2-0.4-0.4-0.7-0.5C183.5,304.9,183.2,304.9,182.8,304.9z"/>
	</g>
	<g>
		<path fill="#667F8D" d="M195,305.5c0,0.1-0.1,0.1-0.1,0.2c0,0-0.1,0.1-0.2,0.1c-0.1,0-0.2,0-0.3-0.1c-0.1-0.1-0.2-0.2-0.4-0.3
			c-0.2-0.1-0.4-0.2-0.6-0.3c-0.2-0.1-0.5-0.1-0.9-0.1c-0.4,0-0.8,0.1-1.2,0.2c-0.3,0.2-0.6,0.4-0.9,0.7s-0.4,0.7-0.5,1.1
			c-0.1,0.4-0.2,0.9-0.2,1.4c0,0.6,0.1,1.1,0.2,1.5c0.1,0.4,0.3,0.8,0.5,1.1c0.2,0.3,0.5,0.5,0.8,0.7c0.3,0.2,0.7,0.2,1.1,0.2
			c0.4,0,0.7,0,1-0.1c0.3-0.1,0.5-0.2,0.6-0.3c0.2-0.1,0.3-0.2,0.4-0.3c0.1-0.1,0.2-0.1,0.3-0.1c0.1,0,0.2,0.1,0.3,0.2l0.5,0.6
			c-0.4,0.5-0.9,0.9-1.5,1.1c-0.6,0.2-1.2,0.3-1.9,0.3c-0.6,0-1.1-0.1-1.6-0.3c-0.5-0.2-0.9-0.5-1.3-0.9c-0.4-0.4-0.7-0.9-0.9-1.5
			c-0.2-0.6-0.3-1.3-0.3-2c0-0.7,0.1-1.3,0.3-1.9c0.2-0.6,0.5-1.1,0.8-1.5c0.4-0.4,0.8-0.8,1.4-1c0.5-0.2,1.2-0.4,1.9-0.4
			c0.6,0,1.2,0.1,1.7,0.3c0.5,0.2,0.9,0.5,1.3,0.9L195,305.5z"/>
	</g>
	<g>
		<path fill="#667F8D" d="M198.9,299.6v7.9h0.4c0.1,0,0.2,0,0.3-0.1c0.1,0,0.2-0.1,0.3-0.2l2.9-3.1c0.1-0.1,0.2-0.2,0.3-0.2
			c0.1-0.1,0.2-0.1,0.4-0.1h1.5l-3.4,3.6c-0.1,0.1-0.2,0.2-0.3,0.3c-0.1,0.1-0.2,0.1-0.3,0.2c0.1,0.1,0.2,0.2,0.3,0.3
			c0.1,0.1,0.2,0.2,0.3,0.3l3.6,4.6h-1.5c-0.1,0-0.2,0-0.3-0.1c-0.1-0.1-0.2-0.1-0.3-0.2l-3-3.8c-0.1-0.1-0.2-0.2-0.3-0.3
			c-0.1,0-0.2-0.1-0.4-0.1h-0.5v4.4h-1.6v-13.4H198.9z"/>
	</g>
	<g>
		<path fill="#667F8D" d="M208.5,299.6V313h-1.6v-13.4H208.5z"/>
	</g>
	<g>
		<path fill="#667F8D" d="M213.6,300.9c0,0.2,0,0.3-0.1,0.4c-0.1,0.1-0.1,0.3-0.3,0.4c-0.1,0.1-0.2,0.2-0.4,0.3
			c-0.1,0.1-0.3,0.1-0.4,0.1c-0.2,0-0.3,0-0.4-0.1c-0.1-0.1-0.3-0.1-0.4-0.3c-0.1-0.1-0.2-0.2-0.3-0.4c-0.1-0.1-0.1-0.3-0.1-0.4
			s0-0.3,0.1-0.5c0.1-0.1,0.1-0.3,0.3-0.4c0.1-0.1,0.2-0.2,0.4-0.3c0.1-0.1,0.3-0.1,0.4-0.1c0.2,0,0.3,0,0.4,0.1
			c0.1,0.1,0.3,0.1,0.4,0.3c0.1,0.1,0.2,0.2,0.3,0.4C213.5,300.6,213.6,300.8,213.6,300.9z M213.2,303.8v9.2h-1.6v-9.2H213.2z"/>
	</g>
	<g>
		<path fill="#667F8D" d="M221.4,305.3c-0.1,0.1-0.2,0.2-0.3,0.2c-0.1,0-0.2,0-0.3-0.1c-0.1-0.1-0.3-0.1-0.4-0.2
			c-0.2-0.1-0.4-0.2-0.6-0.2c-0.2-0.1-0.5-0.1-0.8-0.1c-0.3,0-0.5,0-0.7,0.1s-0.4,0.2-0.6,0.3c-0.2,0.1-0.3,0.3-0.4,0.4
			c-0.1,0.2-0.1,0.3-0.1,0.5c0,0.2,0.1,0.4,0.2,0.6c0.1,0.2,0.3,0.3,0.5,0.4c0.2,0.1,0.5,0.2,0.8,0.3c0.3,0.1,0.6,0.2,0.9,0.3
			s0.6,0.2,0.9,0.3c0.3,0.1,0.5,0.3,0.8,0.5c0.2,0.2,0.4,0.4,0.5,0.7c0.1,0.3,0.2,0.6,0.2,1c0,0.4-0.1,0.8-0.2,1.2
			c-0.2,0.4-0.4,0.7-0.7,0.9c-0.3,0.3-0.7,0.5-1.1,0.6c-0.4,0.2-0.9,0.2-1.5,0.2c-0.6,0-1.2-0.1-1.7-0.3c-0.5-0.2-1-0.5-1.3-0.8
			l0.4-0.6c0-0.1,0.1-0.1,0.2-0.2c0.1,0,0.2-0.1,0.3-0.1c0.1,0,0.2,0,0.3,0.1c0.1,0.1,0.3,0.2,0.4,0.3c0.2,0.1,0.4,0.2,0.6,0.3
			c0.2,0.1,0.6,0.1,0.9,0.1c0.3,0,0.6,0,0.8-0.1c0.2-0.1,0.4-0.2,0.6-0.3c0.2-0.1,0.3-0.3,0.4-0.5c0.1-0.2,0.1-0.4,0.1-0.6
			c0-0.3-0.1-0.5-0.2-0.6c-0.1-0.2-0.3-0.3-0.5-0.4c-0.2-0.1-0.5-0.2-0.8-0.3c-0.3-0.1-0.6-0.2-0.9-0.3s-0.6-0.2-0.9-0.3
			c-0.3-0.1-0.5-0.3-0.8-0.5c-0.2-0.2-0.4-0.4-0.5-0.7c-0.1-0.3-0.2-0.6-0.2-1c0-0.4,0.1-0.7,0.2-1c0.1-0.3,0.4-0.6,0.6-0.9
			c0.3-0.2,0.6-0.4,1-0.6c0.4-0.1,0.9-0.2,1.4-0.2c0.6,0,1.2,0.1,1.6,0.3c0.5,0.2,0.9,0.5,1.3,0.8L221.4,305.3z"/>
	</g>
	<g>
		<path fill="#667F8D" d="M226.8,313.2c-0.7,0-1.3-0.2-1.7-0.6c-0.4-0.4-0.6-1-0.6-1.8v-5.6h-1.1c-0.1,0-0.2,0-0.2-0.1
			c-0.1-0.1-0.1-0.1-0.1-0.3v-0.6l1.5-0.2l0.4-2.8c0-0.1,0.1-0.2,0.1-0.2c0.1-0.1,0.2-0.1,0.3-0.1h0.8v3.2h2.6v1.2h-2.6v5.5
			c0,0.4,0.1,0.7,0.3,0.9c0.2,0.2,0.4,0.3,0.7,0.3c0.2,0,0.3,0,0.4-0.1c0.1,0,0.2-0.1,0.3-0.2c0.1-0.1,0.2-0.1,0.2-0.2
			c0.1,0,0.1-0.1,0.2-0.1c0.1,0,0.2,0.1,0.2,0.2l0.5,0.8c-0.3,0.3-0.6,0.5-1,0.6C227.6,313.1,227.2,313.2,226.8,313.2z"/>
	</g>
	<g>
		<path fill="#667F8D" d="M236,305.3c-0.1,0.1-0.2,0.2-0.3,0.2c-0.1,0-0.2,0-0.3-0.1c-0.1-0.1-0.3-0.1-0.4-0.2
			c-0.2-0.1-0.4-0.2-0.6-0.2c-0.2-0.1-0.5-0.1-0.8-0.1c-0.3,0-0.5,0-0.7,0.1c-0.2,0.1-0.4,0.2-0.6,0.3c-0.2,0.1-0.3,0.3-0.4,0.4
			c-0.1,0.2-0.1,0.3-0.1,0.5c0,0.2,0.1,0.4,0.2,0.6c0.1,0.2,0.3,0.3,0.5,0.4c0.2,0.1,0.5,0.2,0.8,0.3c0.3,0.1,0.6,0.2,0.9,0.3
			s0.6,0.2,0.9,0.3c0.3,0.1,0.5,0.3,0.8,0.5c0.2,0.2,0.4,0.4,0.5,0.7c0.1,0.3,0.2,0.6,0.2,1c0,0.4-0.1,0.8-0.2,1.2
			c-0.2,0.4-0.4,0.7-0.7,0.9c-0.3,0.3-0.7,0.5-1.1,0.6c-0.4,0.2-0.9,0.2-1.5,0.2c-0.6,0-1.2-0.1-1.7-0.3c-0.5-0.2-1-0.5-1.3-0.8
			l0.4-0.6c0-0.1,0.1-0.1,0.2-0.2c0.1,0,0.2-0.1,0.3-0.1c0.1,0,0.2,0,0.3,0.1c0.1,0.1,0.3,0.2,0.4,0.3c0.2,0.1,0.4,0.2,0.6,0.3
			c0.2,0.1,0.6,0.1,0.9,0.1c0.3,0,0.6,0,0.8-0.1c0.2-0.1,0.4-0.2,0.6-0.3c0.2-0.1,0.3-0.3,0.4-0.5c0.1-0.2,0.1-0.4,0.1-0.6
			c0-0.3-0.1-0.5-0.2-0.6c-0.1-0.2-0.3-0.3-0.5-0.4c-0.2-0.1-0.5-0.2-0.8-0.3c-0.3-0.1-0.6-0.2-0.9-0.3c-0.3-0.1-0.6-0.2-0.9-0.3
			c-0.3-0.1-0.5-0.3-0.8-0.5c-0.2-0.2-0.4-0.4-0.5-0.7c-0.1-0.3-0.2-0.6-0.2-1c0-0.4,0.1-0.7,0.2-1c0.1-0.3,0.4-0.6,0.6-0.9
			c0.3-0.2,0.6-0.4,1-0.6c0.4-0.1,0.9-0.2,1.4-0.2c0.6,0,1.2,0.1,1.6,0.3c0.5,0.2,0.9,0.5,1.3,0.8L236,305.3z"/>
	</g>
</g>
<g>
	<g>
		<path fill="#667F8D" d="M44.8,104.8v-13H49c0.8,0,1.5,0.1,2.1,0.2c0.6,0.2,1.1,0.4,1.4,0.7c0.4,0.3,0.6,0.6,0.8,1.1
			c0.2,0.4,0.3,0.9,0.3,1.4c0,0.3-0.1,0.6-0.2,0.9c-0.1,0.3-0.3,0.6-0.5,0.8c-0.2,0.3-0.5,0.5-0.8,0.7c-0.3,0.2-0.7,0.4-1.1,0.5
			c1,0.2,1.7,0.5,2.2,1c0.5,0.5,0.7,1.2,0.7,2c0,0.6-0.1,1.1-0.3,1.5c-0.2,0.5-0.5,0.8-0.9,1.2c-0.4,0.3-0.9,0.6-1.4,0.8
			c-0.6,0.2-1.2,0.3-1.9,0.3H44.8z M46.6,97.6h2.3c0.5,0,0.9-0.1,1.3-0.2c0.4-0.1,0.7-0.3,0.9-0.5c0.2-0.2,0.4-0.4,0.5-0.7
			c0.1-0.3,0.2-0.6,0.2-0.9c0-0.8-0.2-1.3-0.7-1.7c-0.5-0.4-1.2-0.5-2.1-0.5h-2.4V97.6z M46.6,98.8v4.5h2.8c0.5,0,0.9-0.1,1.3-0.2
			c0.4-0.1,0.7-0.3,0.9-0.5s0.4-0.5,0.5-0.7c0.1-0.3,0.2-0.6,0.2-1c0-0.7-0.2-1.2-0.7-1.6c-0.5-0.4-1.2-0.6-2.2-0.6H46.6z"/>
	</g>
	<g>
		<path fill="#667F8D" d="M56.3,104.8v-9.2h0.9c0.2,0,0.3,0,0.4,0.1c0.1,0.1,0.1,0.2,0.1,0.3l0.1,1.4c0.3-0.6,0.7-1.1,1.2-1.5
			c0.5-0.4,1-0.5,1.6-0.5c0.3,0,0.5,0,0.7,0.1c0.2,0.1,0.4,0.1,0.6,0.2l-0.2,1.2c0,0.2-0.1,0.2-0.3,0.2c-0.1,0-0.2,0-0.4-0.1
			C60.9,97,60.6,97,60.3,97c-0.6,0-1,0.2-1.4,0.5c-0.4,0.3-0.7,0.8-1,1.4v5.9H56.3z"/>
	</g>
	<g>
		<path fill="#667F8D" d="M70.1,104.8h-0.7c-0.2,0-0.3,0-0.4-0.1c-0.1,0-0.2-0.2-0.2-0.3l-0.2-0.9c-0.2,0.2-0.5,0.4-0.7,0.6
			c-0.2,0.2-0.5,0.3-0.7,0.4c-0.3,0.1-0.5,0.2-0.8,0.3c-0.3,0.1-0.6,0.1-1,0.1c-0.4,0-0.7-0.1-1-0.2c-0.3-0.1-0.6-0.3-0.8-0.5
			c-0.2-0.2-0.4-0.5-0.6-0.8c-0.1-0.3-0.2-0.7-0.2-1.1c0-0.4,0.1-0.7,0.3-1.1c0.2-0.3,0.5-0.6,1-0.9c0.4-0.3,1-0.5,1.8-0.6
			c0.7-0.2,1.6-0.3,2.6-0.3v-0.7c0-0.7-0.2-1.3-0.5-1.6c-0.3-0.4-0.8-0.6-1.4-0.6c-0.4,0-0.7,0.1-1,0.2c-0.3,0.1-0.5,0.2-0.7,0.3
			c-0.2,0.1-0.4,0.2-0.5,0.3c-0.1,0.1-0.3,0.2-0.4,0.2c-0.1,0-0.2,0-0.3-0.1c-0.1-0.1-0.1-0.1-0.2-0.2l-0.3-0.5
			c0.5-0.5,1.1-0.9,1.6-1.1c0.6-0.2,1.2-0.4,2-0.4c0.5,0,1,0.1,1.4,0.3c0.4,0.2,0.7,0.4,1,0.7c0.3,0.3,0.5,0.7,0.6,1.1
			c0.1,0.4,0.2,0.9,0.2,1.4V104.8z M65.9,103.8c0.3,0,0.5,0,0.8-0.1c0.2-0.1,0.5-0.1,0.7-0.2c0.2-0.1,0.4-0.2,0.6-0.4
			c0.2-0.2,0.4-0.3,0.6-0.5v-1.9c-0.7,0-1.4,0-1.9,0.1c-0.5,0.1-0.9,0.2-1.3,0.4c-0.3,0.2-0.6,0.3-0.7,0.5c-0.1,0.2-0.2,0.4-0.2,0.7
			c0,0.2,0,0.5,0.1,0.6c0.1,0.2,0.2,0.3,0.3,0.4s0.3,0.2,0.5,0.2C65.5,103.7,65.7,103.8,65.9,103.8z"/>
	</g>
	<g>
		<path fill="#667F8D" d="M72.5,104.8v-9.2h1c0.2,0,0.4,0.1,0.4,0.3l0.1,1c0.4-0.4,0.8-0.8,1.3-1.1c0.5-0.3,1.1-0.4,1.7-0.4
			c0.5,0,0.9,0.1,1.3,0.3c0.4,0.2,0.7,0.4,1,0.7c0.3,0.3,0.5,0.7,0.6,1.1c0.1,0.4,0.2,0.9,0.2,1.4v5.9h-1.6v-5.9
			c0-0.7-0.2-1.2-0.5-1.6c-0.3-0.4-0.8-0.6-1.5-0.6c-0.5,0-0.9,0.1-1.3,0.3c-0.4,0.2-0.8,0.5-1.2,0.9v6.8H72.5z"/>
	</g>
	<g>
		<path fill="#667F8D" d="M89.2,104.8c-0.2,0-0.4-0.1-0.4-0.3l-0.1-1.1c-0.4,0.5-0.8,0.9-1.4,1.2c-0.5,0.3-1.1,0.4-1.7,0.4
			c-0.5,0-1-0.1-1.4-0.3c-0.4-0.2-0.8-0.5-1.1-0.9c-0.3-0.4-0.5-0.9-0.7-1.5c-0.2-0.6-0.2-1.3-0.2-2c0-0.7,0.1-1.3,0.3-1.9
			c0.2-0.6,0.4-1.1,0.8-1.5s0.8-0.8,1.3-1s1.1-0.4,1.7-0.4c0.6,0,1,0.1,1.4,0.3c0.4,0.2,0.8,0.5,1.1,0.8v-5.1h1.6v13.4H89.2z
			 M86,103.6c0.5,0,1-0.1,1.4-0.4c0.4-0.2,0.8-0.6,1.1-1v-4.5c-0.3-0.4-0.6-0.7-1-0.8s-0.7-0.2-1.2-0.2c-0.9,0-1.5,0.3-2,0.9
			c-0.5,0.6-0.7,1.5-0.7,2.6c0,0.6,0.1,1.1,0.2,1.5c0.1,0.4,0.3,0.8,0.5,1.1c0.2,0.3,0.4,0.5,0.7,0.6
			C85.3,103.5,85.6,103.6,86,103.6z"/>
	</g>
</g>
<g>
	<g>
		<path fill="#667F8D" d="M312,90.2c0.1,0,0.2,0,0.3,0.1l0.7,0.8c-0.5,0.6-1.2,1.1-1.9,1.4c-0.8,0.3-1.7,0.5-2.8,0.5
			c-0.9,0-1.8-0.2-2.6-0.5c-0.8-0.3-1.4-0.8-2-1.4s-1-1.3-1.3-2.1c-0.3-0.8-0.4-1.7-0.4-2.7c0-1,0.2-1.9,0.5-2.7
			c0.3-0.8,0.8-1.5,1.3-2.1c0.6-0.6,1.3-1,2.1-1.4c0.8-0.3,1.7-0.5,2.7-0.5c1,0,1.8,0.1,2.5,0.4c0.7,0.3,1.3,0.7,1.9,1.2l-0.6,0.8
			c0,0.1-0.1,0.1-0.1,0.2s-0.1,0.1-0.2,0.1c-0.1,0-0.2,0-0.3-0.1c-0.1-0.1-0.2-0.1-0.3-0.2c-0.1-0.1-0.3-0.2-0.4-0.3
			c-0.2-0.1-0.4-0.2-0.6-0.3c-0.2-0.1-0.5-0.2-0.8-0.2s-0.6-0.1-1-0.1c-0.7,0-1.3,0.1-1.9,0.4c-0.6,0.2-1.1,0.6-1.5,1
			c-0.4,0.4-0.7,1-1,1.6c-0.2,0.6-0.4,1.4-0.4,2.1c0,0.8,0.1,1.5,0.4,2.2c0.2,0.6,0.6,1.2,1,1.6c0.4,0.4,0.9,0.8,1.4,1
			c0.6,0.2,1.1,0.3,1.8,0.3c0.4,0,0.7,0,1-0.1c0.3,0,0.6-0.1,0.9-0.2c0.3-0.1,0.5-0.2,0.7-0.4c0.2-0.1,0.5-0.3,0.7-0.5
			C311.8,90.2,311.9,90.2,312,90.2z"/>
	</g>
	<g>
		<path fill="#667F8D" d="M316.4,83.6v5.9c0,0.7,0.2,1.2,0.5,1.6c0.3,0.4,0.8,0.6,1.5,0.6c0.5,0,0.9-0.1,1.3-0.3s0.8-0.5,1.2-0.9
			v-6.8h1.6v9.2h-1c-0.2,0-0.4-0.1-0.4-0.3l-0.1-1c-0.4,0.4-0.9,0.8-1.3,1.1c-0.5,0.3-1.1,0.4-1.7,0.4c-0.5,0-0.9-0.1-1.3-0.3
			c-0.4-0.2-0.7-0.4-1-0.7c-0.3-0.3-0.5-0.7-0.6-1.1c-0.1-0.4-0.2-0.9-0.2-1.4v-5.9H316.4z"/>
	</g>
	<g>
		<path fill="#667F8D" d="M330.4,85.1c-0.1,0.1-0.2,0.2-0.3,0.2c-0.1,0-0.2,0-0.3-0.1c-0.1-0.1-0.3-0.1-0.4-0.2
			c-0.2-0.1-0.4-0.2-0.6-0.2c-0.2-0.1-0.5-0.1-0.8-0.1c-0.3,0-0.5,0-0.7,0.1c-0.2,0.1-0.4,0.2-0.6,0.3c-0.2,0.1-0.3,0.3-0.4,0.4
			c-0.1,0.2-0.1,0.3-0.1,0.5c0,0.2,0.1,0.4,0.2,0.6c0.1,0.2,0.3,0.3,0.5,0.4c0.2,0.1,0.5,0.2,0.8,0.3c0.3,0.1,0.6,0.2,0.9,0.3
			c0.3,0.1,0.6,0.2,0.9,0.3c0.3,0.1,0.5,0.3,0.8,0.5c0.2,0.2,0.4,0.4,0.5,0.7c0.1,0.3,0.2,0.6,0.2,1c0,0.4-0.1,0.8-0.2,1.2
			c-0.2,0.4-0.4,0.7-0.7,0.9c-0.3,0.3-0.7,0.5-1.1,0.6c-0.4,0.2-0.9,0.2-1.5,0.2c-0.6,0-1.2-0.1-1.7-0.3s-1-0.5-1.3-0.8l0.4-0.6
			c0-0.1,0.1-0.1,0.2-0.2c0.1,0,0.2-0.1,0.3-0.1c0.1,0,0.2,0,0.3,0.1c0.1,0.1,0.3,0.2,0.4,0.3c0.2,0.1,0.4,0.2,0.6,0.3
			c0.2,0.1,0.6,0.1,0.9,0.1c0.3,0,0.6,0,0.8-0.1c0.2-0.1,0.4-0.2,0.6-0.3c0.2-0.1,0.3-0.3,0.4-0.5c0.1-0.2,0.1-0.4,0.1-0.6
			c0-0.3-0.1-0.5-0.2-0.6c-0.1-0.2-0.3-0.3-0.5-0.4c-0.2-0.1-0.5-0.2-0.8-0.3c-0.3-0.1-0.6-0.2-0.9-0.3s-0.6-0.2-0.9-0.3
			c-0.3-0.1-0.5-0.3-0.8-0.5c-0.2-0.2-0.4-0.4-0.5-0.7c-0.1-0.3-0.2-0.6-0.2-1c0-0.4,0.1-0.7,0.2-1c0.1-0.3,0.4-0.6,0.6-0.9
			c0.3-0.2,0.6-0.4,1-0.6c0.4-0.1,0.9-0.2,1.4-0.2c0.6,0,1.2,0.1,1.6,0.3c0.5,0.2,0.9,0.5,1.3,0.8L330.4,85.1z"/>
	</g>
	<g>
		<path fill="#667F8D" d="M335.8,93c-0.7,0-1.3-0.2-1.7-0.6c-0.4-0.4-0.6-1-0.6-1.8V85h-1.1c-0.1,0-0.2,0-0.2-0.1s-0.1-0.1-0.1-0.3
			V84l1.5-0.2l0.4-2.8c0-0.1,0.1-0.2,0.1-0.2c0.1-0.1,0.2-0.1,0.3-0.1h0.8v3.2h2.6V85h-2.6v5.5c0,0.4,0.1,0.7,0.3,0.9
			c0.2,0.2,0.4,0.3,0.7,0.3c0.2,0,0.3,0,0.4-0.1c0.1,0,0.2-0.1,0.3-0.2c0.1-0.1,0.2-0.1,0.2-0.2c0.1,0,0.1-0.1,0.2-0.1
			c0.1,0,0.2,0.1,0.2,0.2l0.5,0.8c-0.3,0.3-0.6,0.5-1,0.6S336.2,93,335.8,93z"/>
	</g>
	<g>
		<path fill="#667F8D" d="M343.5,83.5c0.7,0,1.3,0.1,1.8,0.3c0.5,0.2,1,0.5,1.4,1c0.4,0.4,0.7,0.9,0.9,1.5c0.2,0.6,0.3,1.2,0.3,2
			c0,0.7-0.1,1.4-0.3,2c-0.2,0.6-0.5,1.1-0.9,1.5c-0.4,0.4-0.8,0.7-1.4,1c-0.5,0.2-1.2,0.3-1.8,0.3s-1.3-0.1-1.8-0.3
			c-0.5-0.2-1-0.5-1.4-1c-0.4-0.4-0.7-0.9-0.9-1.5c-0.2-0.6-0.3-1.2-0.3-2c0-0.7,0.1-1.4,0.3-2c0.2-0.6,0.5-1.1,0.9-1.5
			c0.4-0.4,0.8-0.7,1.4-1C342.3,83.6,342.9,83.5,343.5,83.5z M343.5,91.7c0.9,0,1.6-0.3,2-0.9c0.4-0.6,0.7-1.5,0.7-2.6
			c0-1.1-0.2-2-0.7-2.6c-0.4-0.6-1.1-0.9-2-0.9c-0.5,0-0.9,0.1-1.2,0.2c-0.3,0.2-0.6,0.4-0.9,0.7s-0.4,0.7-0.5,1.1
			c-0.1,0.4-0.2,0.9-0.2,1.5c0,0.5,0.1,1,0.2,1.5c0.1,0.4,0.3,0.8,0.5,1.1c0.2,0.3,0.5,0.5,0.9,0.7
			C342.7,91.6,343.1,91.7,343.5,91.7z"/>
	</g>
	<g>
		<path fill="#667F8D" d="M349.9,92.8v-9.2h1c0.2,0,0.4,0.1,0.4,0.3l0.1,0.9c0.3-0.4,0.7-0.8,1.1-1s0.9-0.4,1.5-0.4
			c0.6,0,1.1,0.2,1.5,0.5c0.4,0.3,0.7,0.8,0.8,1.4c0.1-0.3,0.3-0.6,0.5-0.9c0.2-0.2,0.4-0.4,0.7-0.6c0.3-0.2,0.5-0.3,0.8-0.3
			c0.3-0.1,0.6-0.1,0.9-0.1c0.5,0,0.9,0.1,1.3,0.2c0.4,0.2,0.7,0.4,1,0.7c0.3,0.3,0.5,0.7,0.6,1.1c0.1,0.4,0.2,0.9,0.2,1.5v5.9h-1.6
			V87c0-0.7-0.2-1.3-0.5-1.6c-0.3-0.4-0.8-0.6-1.4-0.6c-0.3,0-0.5,0-0.8,0.1c-0.2,0.1-0.5,0.2-0.6,0.4c-0.2,0.2-0.3,0.4-0.4,0.7
			c-0.1,0.3-0.2,0.6-0.2,1v5.9h-1.6V87c0-0.7-0.1-1.3-0.4-1.7c-0.3-0.4-0.7-0.5-1.3-0.5c-0.4,0-0.8,0.1-1.1,0.3
			c-0.3,0.2-0.7,0.5-0.9,0.9v6.9H349.9z"/>
	</g>
	<g>
		<path fill="#667F8D" d="M368.5,83.5c0.6,0,1.1,0.1,1.5,0.3c0.5,0.2,0.9,0.5,1.2,0.8c0.3,0.3,0.6,0.8,0.8,1.3
			c0.2,0.5,0.3,1.1,0.3,1.8c0,0.3,0,0.4-0.1,0.5c-0.1,0.1-0.2,0.1-0.3,0.1h-6.1c0,0.6,0.1,1.1,0.2,1.5c0.1,0.4,0.3,0.8,0.6,1.1
			c0.3,0.3,0.6,0.5,0.9,0.6c0.4,0.1,0.7,0.2,1.2,0.2c0.4,0,0.8,0,1.1-0.1c0.3-0.1,0.5-0.2,0.8-0.3c0.2-0.1,0.4-0.2,0.5-0.3
			c0.1-0.1,0.3-0.1,0.4-0.1c0.1,0,0.2,0.1,0.3,0.2l0.5,0.6c-0.2,0.2-0.4,0.5-0.7,0.6c-0.3,0.2-0.6,0.3-0.9,0.4
			c-0.3,0.1-0.6,0.2-1,0.3c-0.3,0.1-0.7,0.1-1,0.1c-0.6,0-1.2-0.1-1.8-0.3c-0.5-0.2-1-0.5-1.4-0.9c-0.4-0.4-0.7-0.9-0.9-1.5
			c-0.2-0.6-0.3-1.3-0.3-2.1c0-0.6,0.1-1.2,0.3-1.8c0.2-0.6,0.5-1,0.9-1.5s0.8-0.7,1.4-1C367.3,83.6,367.9,83.5,368.5,83.5z
			 M368.6,84.7c-0.8,0-1.4,0.2-1.8,0.7c-0.4,0.5-0.7,1.1-0.8,1.9h5c0-0.4-0.1-0.7-0.2-1c-0.1-0.3-0.3-0.6-0.5-0.8
			c-0.2-0.2-0.4-0.4-0.7-0.5C369.3,84.7,368.9,84.7,368.6,84.7z"/>
	</g>
	<g>
		<path fill="#667F8D" d="M374.4,92.8v-9.2h0.9c0.2,0,0.3,0,0.4,0.1c0.1,0.1,0.1,0.2,0.1,0.3l0.1,1.4c0.3-0.6,0.7-1.1,1.2-1.5
			c0.5-0.4,1-0.5,1.6-0.5c0.3,0,0.5,0,0.7,0.1s0.4,0.1,0.6,0.2l-0.2,1.2c0,0.2-0.1,0.2-0.3,0.2c-0.1,0-0.2,0-0.4-0.1
			c-0.2-0.1-0.4-0.1-0.7-0.1c-0.6,0-1,0.2-1.4,0.5c-0.4,0.3-0.7,0.8-1,1.4v5.9H374.4z"/>
	</g>
	<g>
		<path fill="#667F8D" d="M319.8,103.7c-0.1,0.1-0.1,0.2-0.2,0.2c-0.1,0-0.1,0.1-0.2,0.1c-0.1,0-0.2-0.1-0.4-0.2
			c-0.1-0.1-0.3-0.2-0.5-0.3c-0.2-0.1-0.5-0.2-0.8-0.3c-0.3-0.1-0.6-0.2-1.1-0.2c-0.4,0-0.7,0.1-1,0.2c-0.3,0.1-0.6,0.3-0.8,0.4
			c-0.2,0.2-0.4,0.4-0.5,0.6c-0.1,0.2-0.2,0.5-0.2,0.8c0,0.4,0.1,0.7,0.3,0.9c0.2,0.2,0.4,0.4,0.7,0.6s0.6,0.3,1,0.4
			c0.4,0.1,0.8,0.3,1.1,0.4c0.4,0.1,0.8,0.3,1.1,0.5c0.4,0.2,0.7,0.4,1,0.6c0.3,0.3,0.5,0.6,0.7,0.9c0.2,0.4,0.3,0.8,0.3,1.4
			c0,0.6-0.1,1.1-0.3,1.6c-0.2,0.5-0.5,0.9-0.9,1.3s-0.8,0.7-1.4,0.9c-0.5,0.2-1.2,0.3-1.9,0.3c-0.8,0-1.6-0.2-2.3-0.5
			c-0.7-0.3-1.3-0.7-1.8-1.2l0.5-0.8c0-0.1,0.1-0.1,0.2-0.2c0.1,0,0.1-0.1,0.2-0.1c0.1,0,0.3,0.1,0.4,0.2c0.2,0.1,0.4,0.3,0.6,0.5
			c0.2,0.2,0.5,0.3,0.9,0.5c0.3,0.1,0.8,0.2,1.3,0.2c0.4,0,0.8-0.1,1.1-0.2c0.3-0.1,0.6-0.3,0.8-0.5s0.4-0.5,0.5-0.8
			c0.1-0.3,0.2-0.6,0.2-1c0-0.4-0.1-0.7-0.3-1c-0.2-0.3-0.4-0.5-0.7-0.6s-0.6-0.3-1-0.4c-0.4-0.1-0.8-0.2-1.1-0.4
			c-0.4-0.1-0.8-0.3-1.1-0.4c-0.4-0.2-0.7-0.4-1-0.6s-0.5-0.6-0.7-1c-0.2-0.4-0.3-0.9-0.3-1.5c0-0.5,0.1-0.9,0.3-1.3
			c0.2-0.4,0.4-0.8,0.8-1.1c0.3-0.3,0.8-0.6,1.3-0.8c0.5-0.2,1.1-0.3,1.7-0.3c0.7,0,1.4,0.1,2,0.3c0.6,0.2,1.1,0.6,1.6,1
			L319.8,103.7z"/>
	</g>
	<g>
		<path fill="#667F8D" d="M326.2,105.3c0.6,0,1.1,0.1,1.5,0.3c0.5,0.2,0.9,0.5,1.2,0.8c0.3,0.3,0.6,0.8,0.8,1.3
			c0.2,0.5,0.3,1.1,0.3,1.8c0,0.3,0,0.4-0.1,0.5s-0.2,0.1-0.3,0.1h-6.1c0,0.6,0.1,1.1,0.2,1.5c0.1,0.4,0.3,0.8,0.6,1.1
			c0.3,0.3,0.6,0.5,0.9,0.6c0.4,0.1,0.7,0.2,1.2,0.2c0.4,0,0.8,0,1.1-0.1c0.3-0.1,0.5-0.2,0.8-0.3s0.4-0.2,0.5-0.3
			c0.1-0.1,0.3-0.1,0.4-0.1c0.1,0,0.2,0.1,0.3,0.2l0.5,0.6c-0.2,0.2-0.4,0.5-0.7,0.6c-0.3,0.2-0.6,0.3-0.9,0.4
			c-0.3,0.1-0.6,0.2-1,0.3c-0.3,0.1-0.7,0.1-1,0.1c-0.6,0-1.2-0.1-1.8-0.3c-0.5-0.2-1-0.5-1.4-0.9c-0.4-0.4-0.7-0.9-0.9-1.5
			c-0.2-0.6-0.3-1.3-0.3-2.1c0-0.6,0.1-1.2,0.3-1.8c0.2-0.6,0.5-1,0.9-1.5s0.8-0.7,1.4-1C324.9,105.4,325.5,105.3,326.2,105.3z
			 M326.2,106.5c-0.8,0-1.4,0.2-1.8,0.7c-0.4,0.5-0.7,1.1-0.8,1.9h5c0-0.4-0.1-0.7-0.2-1c-0.1-0.3-0.3-0.6-0.5-0.8
			c-0.2-0.2-0.4-0.4-0.7-0.5C326.9,106.6,326.6,106.5,326.2,106.5z"/>
	</g>
	<g>
		<path fill="#667F8D" d="M332.1,114.7v-9.2h0.9c0.2,0,0.3,0,0.4,0.1c0.1,0.1,0.1,0.2,0.1,0.3l0.1,1.4c0.3-0.6,0.7-1.1,1.2-1.5
			c0.5-0.4,1-0.5,1.6-0.5c0.3,0,0.5,0,0.7,0.1c0.2,0.1,0.4,0.1,0.6,0.2l-0.2,1.2c0,0.2-0.1,0.2-0.3,0.2c-0.1,0-0.2,0-0.4-0.1
			c-0.2-0.1-0.4-0.1-0.7-0.1c-0.6,0-1,0.2-1.4,0.5c-0.4,0.3-0.7,0.8-1,1.4v5.9H332.1z"/>
	</g>
	<g>
		<path fill="#667F8D" d="M338.2,105.5h1.3c0.1,0,0.2,0,0.3,0.1c0.1,0.1,0.1,0.1,0.2,0.2l2.3,5.9c0.1,0.2,0.2,0.4,0.2,0.7
			c0,0.2,0.1,0.4,0.1,0.6c0-0.2,0.1-0.4,0.2-0.6c0.1-0.2,0.1-0.4,0.2-0.7l2.4-5.9c0-0.1,0.1-0.2,0.2-0.2c0.1-0.1,0.2-0.1,0.3-0.1
			h1.3l-3.8,9.2H342L338.2,105.5z"/>
	</g>
	<g>
		<path fill="#667F8D" d="M350.9,102.6c0,0.2,0,0.3-0.1,0.4c-0.1,0.1-0.1,0.3-0.3,0.4c-0.1,0.1-0.2,0.2-0.4,0.3
			c-0.1,0.1-0.3,0.1-0.4,0.1c-0.2,0-0.3,0-0.4-0.1c-0.1-0.1-0.3-0.1-0.4-0.3c-0.1-0.1-0.2-0.2-0.3-0.4c-0.1-0.1-0.1-0.3-0.1-0.4
			c0-0.2,0-0.3,0.1-0.5c0.1-0.1,0.1-0.3,0.3-0.4c0.1-0.1,0.2-0.2,0.4-0.3c0.1-0.1,0.3-0.1,0.4-0.1c0.2,0,0.3,0,0.4,0.1
			c0.1,0.1,0.3,0.1,0.4,0.3c0.1,0.1,0.2,0.2,0.3,0.4C350.9,102.3,350.9,102.4,350.9,102.6z M350.5,105.5v9.2h-1.6v-9.2H350.5z"/>
	</g>
	<g>
		<path fill="#667F8D" d="M359.7,107.1c0,0.1-0.1,0.1-0.1,0.2c0,0-0.1,0.1-0.2,0.1s-0.2,0-0.3-0.1c-0.1-0.1-0.2-0.2-0.4-0.2
			c-0.2-0.1-0.4-0.2-0.6-0.3c-0.2-0.1-0.5-0.1-0.9-0.1c-0.4,0-0.8,0.1-1.2,0.2c-0.3,0.2-0.6,0.4-0.9,0.7c-0.2,0.3-0.4,0.7-0.5,1.1
			c-0.1,0.4-0.2,0.9-0.2,1.4c0,0.6,0.1,1.1,0.2,1.5c0.1,0.4,0.3,0.8,0.5,1.1c0.2,0.3,0.5,0.5,0.8,0.7c0.3,0.2,0.7,0.2,1.1,0.2
			c0.4,0,0.7,0,1-0.1c0.3-0.1,0.5-0.2,0.6-0.3c0.2-0.1,0.3-0.2,0.4-0.3c0.1-0.1,0.2-0.1,0.3-0.1c0.1,0,0.2,0.1,0.3,0.2l0.5,0.6
			c-0.4,0.5-0.9,0.9-1.5,1.1c-0.6,0.2-1.2,0.3-1.9,0.3c-0.6,0-1.1-0.1-1.6-0.3c-0.5-0.2-0.9-0.5-1.3-0.9c-0.4-0.4-0.7-0.9-0.9-1.5
			c-0.2-0.6-0.3-1.3-0.3-2c0-0.7,0.1-1.3,0.3-1.9c0.2-0.6,0.5-1.1,0.8-1.5c0.4-0.4,0.8-0.8,1.4-1c0.5-0.2,1.2-0.4,1.9-0.4
			c0.6,0,1.2,0.1,1.7,0.3c0.5,0.2,0.9,0.5,1.3,0.9L359.7,107.1z"/>
	</g>
	<g>
		<path fill="#667F8D" d="M365.5,105.3c0.6,0,1.1,0.1,1.5,0.3c0.5,0.2,0.9,0.5,1.2,0.8c0.3,0.3,0.6,0.8,0.8,1.3
			c0.2,0.5,0.3,1.1,0.3,1.8c0,0.3,0,0.4-0.1,0.5c-0.1,0.1-0.2,0.1-0.3,0.1h-6.1c0,0.6,0.1,1.1,0.2,1.5c0.1,0.4,0.3,0.8,0.6,1.1
			c0.3,0.3,0.6,0.5,0.9,0.6c0.4,0.1,0.7,0.2,1.2,0.2c0.4,0,0.8,0,1.1-0.1c0.3-0.1,0.5-0.2,0.8-0.3c0.2-0.1,0.4-0.2,0.5-0.3
			c0.1-0.1,0.3-0.1,0.4-0.1c0.1,0,0.2,0.1,0.3,0.2l0.5,0.6c-0.2,0.2-0.4,0.5-0.7,0.6c-0.3,0.2-0.6,0.3-0.9,0.4
			c-0.3,0.1-0.6,0.2-1,0.3c-0.3,0.1-0.7,0.1-1,0.1c-0.6,0-1.2-0.1-1.8-0.3c-0.5-0.2-1-0.5-1.4-0.9c-0.4-0.4-0.7-0.9-0.9-1.5
			c-0.2-0.6-0.3-1.3-0.3-2.1c0-0.6,0.1-1.2,0.3-1.8c0.2-0.6,0.5-1,0.9-1.5s0.8-0.7,1.4-1C364.3,105.4,364.9,105.3,365.5,105.3z
			 M365.6,106.5c-0.8,0-1.4,0.2-1.8,0.7c-0.4,0.5-0.7,1.1-0.8,1.9h5c0-0.4-0.1-0.7-0.2-1c-0.1-0.3-0.3-0.6-0.5-0.8
			c-0.2-0.2-0.4-0.4-0.7-0.5C366.3,106.6,365.9,106.5,365.6,106.5z"/>
	</g>
</g>
<g>
	<g>
		<path fill="#667F8D" d="M6.4,238.3H7c0.2,0,0.4,0,0.6-0.1c0.1-0.1,0.3-0.2,0.4-0.3l4.3-4.9c0.1-0.2,0.3-0.3,0.4-0.3
			c0.1-0.1,0.3-0.1,0.5-0.1h1.5l-5,5.6c-0.1,0.1-0.2,0.3-0.4,0.4c-0.1,0.1-0.2,0.2-0.4,0.2c0.2,0.1,0.3,0.1,0.4,0.2
			c0.1,0.1,0.3,0.2,0.4,0.4l5.2,6.2h-1.5c-0.1,0-0.2,0-0.3,0c-0.1,0-0.1,0-0.2-0.1c-0.1,0-0.1-0.1-0.2-0.1c0,0-0.1-0.1-0.1-0.2
			L8.2,240C8.1,240,8,239.9,8,239.9c-0.1-0.1-0.1-0.1-0.2-0.1c-0.1,0-0.2-0.1-0.3-0.1c-0.1,0-0.2,0-0.4,0H6.4v6H4.6v-13h1.8V238.3z"
			/>
	</g>
	<g>
		<path fill="#667F8D" d="M16.6,245.6v-9.2h1c0.2,0,0.4,0.1,0.4,0.3l0.1,1c0.4-0.4,0.8-0.8,1.3-1.1s1.1-0.4,1.7-0.4
			c0.5,0,0.9,0.1,1.3,0.3c0.4,0.2,0.7,0.4,1,0.7c0.3,0.3,0.5,0.7,0.6,1.1c0.1,0.4,0.2,0.9,0.2,1.4v5.9h-1.6v-5.9
			c0-0.7-0.2-1.2-0.5-1.6c-0.3-0.4-0.8-0.6-1.5-0.6c-0.5,0-0.9,0.1-1.3,0.3c-0.4,0.2-0.8,0.5-1.2,0.9v6.8H16.6z"/>
	</g>
	<g>
		<path fill="#667F8D" d="M30.4,236.2c0.7,0,1.3,0.1,1.8,0.3c0.5,0.2,1,0.5,1.4,1c0.4,0.4,0.7,0.9,0.9,1.5c0.2,0.6,0.3,1.2,0.3,2
			c0,0.7-0.1,1.4-0.3,2c-0.2,0.6-0.5,1.1-0.9,1.5c-0.4,0.4-0.8,0.7-1.4,1c-0.5,0.2-1.2,0.3-1.8,0.3c-0.7,0-1.3-0.1-1.8-0.3
			s-1-0.5-1.4-1c-0.4-0.4-0.7-0.9-0.9-1.5c-0.2-0.6-0.3-1.2-0.3-2c0-0.7,0.1-1.4,0.3-2c0.2-0.6,0.5-1.1,0.9-1.5
			c0.4-0.4,0.8-0.7,1.4-1S29.7,236.2,30.4,236.2z M30.4,244.5c0.9,0,1.6-0.3,2-0.9c0.4-0.6,0.7-1.5,0.7-2.6c0-1.1-0.2-2-0.7-2.6
			c-0.4-0.6-1.1-0.9-2-0.9c-0.5,0-0.9,0.1-1.2,0.2c-0.3,0.2-0.6,0.4-0.9,0.7c-0.2,0.3-0.4,0.7-0.5,1.1c-0.1,0.4-0.2,0.9-0.2,1.5
			c0,0.5,0.1,1,0.2,1.5c0.1,0.4,0.3,0.8,0.5,1.1c0.2,0.3,0.5,0.5,0.9,0.7C29.6,244.4,30,244.5,30.4,244.5z"/>
	</g>
	<g>
		<path fill="#667F8D" d="M35.6,236.4h1.3c0.1,0,0.2,0,0.3,0.1c0.1,0.1,0.1,0.1,0.2,0.2l1.8,5.9c0,0.2,0.1,0.4,0.1,0.6
			c0,0.2,0.1,0.4,0.1,0.6c0-0.2,0.1-0.4,0.2-0.6c0.1-0.2,0.1-0.4,0.2-0.6l1.9-6c0-0.1,0.1-0.2,0.2-0.2c0.1-0.1,0.2-0.1,0.3-0.1h0.7
			c0.1,0,0.2,0,0.3,0.1c0.1,0.1,0.1,0.1,0.2,0.2l1.9,6c0.1,0.2,0.1,0.4,0.2,0.6c0.1,0.2,0.1,0.4,0.2,0.6c0-0.2,0.1-0.4,0.1-0.6
			c0-0.2,0.1-0.4,0.2-0.6l1.8-5.9c0-0.1,0.1-0.2,0.2-0.2c0.1-0.1,0.2-0.1,0.3-0.1h1.2l-3,9.2H45c-0.2,0-0.3-0.1-0.3-0.3l-2-6.3
			c0-0.1-0.1-0.3-0.1-0.4c0-0.1-0.1-0.3-0.1-0.4c0,0.1-0.1,0.3-0.1,0.4c0,0.1-0.1,0.3-0.1,0.4l-2.1,6.2c-0.1,0.2-0.2,0.3-0.4,0.3
			h-1.2L35.6,236.4z"/>
	</g>
	<g>
		<path fill="#667F8D" d="M50.3,239.5h4.5v1.4h-4.5V239.5z"/>
	</g>
	<g>
		<path fill="#667F8D" d="M57.1,245.6v-13.4h1.6v5.4c0.4-0.4,0.8-0.8,1.3-1c0.5-0.3,1-0.4,1.7-0.4c0.5,0,0.9,0.1,1.3,0.3
			c0.4,0.2,0.7,0.4,1,0.7c0.3,0.3,0.5,0.7,0.6,1.1c0.1,0.4,0.2,0.9,0.2,1.4v5.9h-1.6v-5.9c0-0.7-0.2-1.2-0.5-1.6
			c-0.3-0.4-0.8-0.6-1.5-0.6c-0.5,0-0.9,0.1-1.3,0.3c-0.4,0.2-0.8,0.5-1.2,0.9v6.8H57.1z"/>
	</g>
	<g>
		<path fill="#667F8D" d="M70.9,236.2c0.7,0,1.3,0.1,1.8,0.3s1,0.5,1.4,1c0.4,0.4,0.7,0.9,0.9,1.5c0.2,0.6,0.3,1.2,0.3,2
			c0,0.7-0.1,1.4-0.3,2c-0.2,0.6-0.5,1.1-0.9,1.5c-0.4,0.4-0.8,0.7-1.4,1s-1.2,0.3-1.8,0.3c-0.7,0-1.3-0.1-1.8-0.3s-1-0.5-1.4-1
			c-0.4-0.4-0.7-0.9-0.9-1.5c-0.2-0.6-0.3-1.2-0.3-2c0-0.7,0.1-1.4,0.3-2c0.2-0.6,0.5-1.1,0.9-1.5c0.4-0.4,0.8-0.7,1.4-1
			S70.3,236.2,70.9,236.2z M70.9,244.5c0.9,0,1.6-0.3,2-0.9c0.4-0.6,0.7-1.5,0.7-2.6c0-1.1-0.2-2-0.7-2.6c-0.4-0.6-1.1-0.9-2-0.9
			c-0.5,0-0.9,0.1-1.2,0.2c-0.3,0.2-0.6,0.4-0.9,0.7c-0.2,0.3-0.4,0.7-0.5,1.1c-0.1,0.4-0.2,0.9-0.2,1.5c0,0.5,0.1,1,0.2,1.5
			c0.1,0.4,0.3,0.8,0.5,1.1c0.2,0.3,0.5,0.5,0.9,0.7C70.1,244.4,70.5,244.5,70.9,244.5z"/>
	</g>
	<g>
		<path fill="#667F8D" d="M76.1,236.4h1.3c0.1,0,0.2,0,0.3,0.1c0.1,0.1,0.1,0.1,0.2,0.2l1.8,5.9c0,0.2,0.1,0.4,0.1,0.6
			c0,0.2,0.1,0.4,0.1,0.6c0-0.2,0.1-0.4,0.2-0.6c0.1-0.2,0.1-0.4,0.2-0.6l1.9-6c0-0.1,0.1-0.2,0.2-0.2c0.1-0.1,0.2-0.1,0.3-0.1h0.7
			c0.1,0,0.2,0,0.3,0.1c0.1,0.1,0.1,0.1,0.2,0.2l1.9,6c0.1,0.2,0.1,0.4,0.2,0.6c0.1,0.2,0.1,0.4,0.2,0.6c0-0.2,0.1-0.4,0.1-0.6
			c0-0.2,0.1-0.4,0.2-0.6l1.8-5.9c0-0.1,0.1-0.2,0.2-0.2c0.1-0.1,0.2-0.1,0.3-0.1h1.2l-3,9.2h-1.3c-0.2,0-0.3-0.1-0.3-0.3l-2-6.3
			c0-0.1-0.1-0.3-0.1-0.4c0-0.1-0.1-0.3-0.1-0.4c0,0.1-0.1,0.3-0.1,0.4c0,0.1-0.1,0.3-0.1,0.4l-2.1,6.2c-0.1,0.2-0.2,0.3-0.4,0.3
			h-1.2L76.1,236.4z"/>
	</g>
</g>
<g>
	<g>
		<path fill="#667F8D" d="M306.6,240.2v5.4h-1.8v-13h3.7c0.8,0,1.5,0.1,2.1,0.3c0.6,0.2,1.1,0.4,1.5,0.7c0.4,0.3,0.7,0.7,0.9,1.1
			c0.2,0.4,0.3,0.9,0.3,1.5c0,0.5-0.1,0.9-0.2,1.3c-0.1,0.4-0.4,0.8-0.6,1.1c-0.3,0.3-0.6,0.6-1,0.8c-0.4,0.2-0.8,0.4-1.4,0.5
			c0.2,0.1,0.4,0.3,0.6,0.6l3.8,5.2h-1.6c-0.3,0-0.6-0.1-0.7-0.4l-3.4-4.7c-0.1-0.1-0.2-0.3-0.3-0.3c-0.1-0.1-0.3-0.1-0.5-0.1H306.6
			z M306.6,238.9h1.8c0.5,0,1-0.1,1.4-0.2c0.4-0.1,0.7-0.3,1-0.5c0.3-0.2,0.5-0.5,0.6-0.8c0.1-0.3,0.2-0.7,0.2-1
			c0-0.8-0.3-1.4-0.8-1.8c-0.5-0.4-1.3-0.6-2.3-0.6h-1.9V238.9z"/>
	</g>
	<g>
		<path fill="#667F8D" d="M319.9,236.2c0.7,0,1.3,0.1,1.8,0.3c0.5,0.2,1,0.5,1.4,1c0.4,0.4,0.7,0.9,0.9,1.5c0.2,0.6,0.3,1.2,0.3,2
			c0,0.7-0.1,1.4-0.3,2c-0.2,0.6-0.5,1.1-0.9,1.5c-0.4,0.4-0.8,0.7-1.4,1c-0.5,0.2-1.2,0.3-1.8,0.3s-1.3-0.1-1.8-0.3
			c-0.5-0.2-1-0.5-1.4-1c-0.4-0.4-0.7-0.9-0.9-1.5c-0.2-0.6-0.3-1.2-0.3-2c0-0.7,0.1-1.4,0.3-2c0.2-0.6,0.5-1.1,0.9-1.5
			c0.4-0.4,0.8-0.7,1.4-1C318.6,236.3,319.2,236.2,319.9,236.2z M319.9,244.5c0.9,0,1.6-0.3,2-0.9c0.4-0.6,0.7-1.5,0.7-2.6
			c0-1.1-0.2-2-0.7-2.6c-0.4-0.6-1.1-0.9-2-0.9c-0.5,0-0.9,0.1-1.2,0.2c-0.3,0.2-0.6,0.4-0.9,0.7s-0.4,0.7-0.5,1.1
			c-0.1,0.4-0.2,0.9-0.2,1.5c0,0.5,0.1,1,0.2,1.5c0.1,0.4,0.3,0.8,0.5,1.1c0.2,0.3,0.5,0.5,0.9,0.7
			C319,244.4,319.4,244.5,319.9,244.5z"/>
	</g>
	<g>
		<path fill="#667F8D" d="M327.7,236.4v5.9c0,0.7,0.2,1.2,0.5,1.6c0.3,0.4,0.8,0.6,1.5,0.6c0.5,0,0.9-0.1,1.3-0.3s0.8-0.5,1.2-0.9
			v-6.8h1.6v9.2h-1c-0.2,0-0.4-0.1-0.4-0.3l-0.1-1c-0.4,0.4-0.8,0.8-1.3,1.1c-0.5,0.3-1.1,0.4-1.7,0.4c-0.5,0-0.9-0.1-1.3-0.3
			c-0.4-0.2-0.7-0.4-1-0.7c-0.3-0.3-0.5-0.7-0.6-1.1c-0.1-0.4-0.2-0.9-0.2-1.4v-5.9H327.7z"/>
	</g>
	<g>
		<path fill="#667F8D" d="M339.2,245.7c-0.7,0-1.3-0.2-1.7-0.6c-0.4-0.4-0.6-1-0.6-1.8v-5.6h-1.1c-0.1,0-0.2,0-0.2-0.1
			c-0.1-0.1-0.1-0.1-0.1-0.3v-0.6l1.5-0.2l0.4-2.9c0-0.1,0.1-0.2,0.1-0.2c0.1-0.1,0.2-0.1,0.3-0.1h0.8v3.2h2.6v1.2h-2.6v5.5
			c0,0.4,0.1,0.7,0.3,0.9c0.2,0.2,0.4,0.3,0.7,0.3c0.2,0,0.3,0,0.4-0.1c0.1,0,0.2-0.1,0.3-0.2c0.1-0.1,0.2-0.1,0.2-0.2
			c0.1,0,0.1-0.1,0.2-0.1c0.1,0,0.2,0.1,0.2,0.2l0.5,0.8c-0.3,0.3-0.6,0.5-1,0.6C340,245.7,339.6,245.7,339.2,245.7z"/>
	</g>
	<g>
		<path fill="#667F8D" d="M345.4,233.5c0,0.2,0,0.3-0.1,0.4c-0.1,0.1-0.1,0.3-0.3,0.4c-0.1,0.1-0.2,0.2-0.4,0.3
			c-0.1,0.1-0.3,0.1-0.4,0.1c-0.2,0-0.3,0-0.4-0.1c-0.1-0.1-0.3-0.1-0.4-0.3c-0.1-0.1-0.2-0.2-0.3-0.4c-0.1-0.1-0.1-0.3-0.1-0.4
			c0-0.2,0-0.3,0.1-0.5c0.1-0.1,0.1-0.3,0.3-0.4c0.1-0.1,0.2-0.2,0.4-0.3c0.1-0.1,0.3-0.1,0.4-0.1c0.2,0,0.3,0,0.4,0.1
			c0.1,0.1,0.3,0.1,0.4,0.3c0.1,0.1,0.2,0.2,0.3,0.4C345.3,233.2,345.4,233.3,345.4,233.5z M345,236.4v9.2h-1.6v-9.2H345z"/>
	</g>
	<g>
		<path fill="#667F8D" d="M347.9,245.6v-9.2h1c0.2,0,0.4,0.1,0.4,0.3l0.1,1c0.4-0.4,0.8-0.8,1.3-1.1c0.5-0.3,1.1-0.4,1.7-0.4
			c0.5,0,0.9,0.1,1.3,0.3c0.4,0.2,0.7,0.4,1,0.7c0.3,0.3,0.5,0.7,0.6,1.1c0.1,0.4,0.2,0.9,0.2,1.4v5.9h-1.6v-5.9
			c0-0.7-0.2-1.2-0.5-1.6c-0.3-0.4-0.8-0.6-1.5-0.6c-0.5,0-0.9,0.1-1.3,0.3c-0.4,0.2-0.8,0.5-1.2,0.9v6.8H347.9z"/>
	</g>
	<g>
		<path fill="#667F8D" d="M361.6,236.2c0.6,0,1.1,0.1,1.5,0.3c0.5,0.2,0.9,0.5,1.2,0.8c0.3,0.3,0.6,0.8,0.8,1.3
			c0.2,0.5,0.3,1.1,0.3,1.8c0,0.3,0,0.4-0.1,0.5c-0.1,0.1-0.2,0.1-0.3,0.1h-6.1c0,0.6,0.1,1.1,0.2,1.5c0.1,0.4,0.3,0.8,0.6,1.1
			c0.3,0.3,0.6,0.5,0.9,0.6s0.7,0.2,1.2,0.2c0.4,0,0.8,0,1.1-0.1c0.3-0.1,0.5-0.2,0.8-0.3c0.2-0.1,0.4-0.2,0.5-0.3
			c0.1-0.1,0.3-0.1,0.4-0.1c0.1,0,0.2,0.1,0.3,0.2l0.5,0.6c-0.2,0.2-0.4,0.5-0.7,0.6c-0.3,0.2-0.6,0.3-0.9,0.4
			c-0.3,0.1-0.6,0.2-1,0.3c-0.3,0.1-0.7,0.1-1,0.1c-0.6,0-1.2-0.1-1.8-0.3c-0.5-0.2-1-0.5-1.4-0.9s-0.7-0.9-0.9-1.5
			c-0.2-0.6-0.3-1.3-0.3-2.1c0-0.6,0.1-1.2,0.3-1.8c0.2-0.6,0.5-1,0.9-1.5c0.4-0.4,0.8-0.7,1.4-1C360.4,236.3,361,236.2,361.6,236.2
			z M361.7,237.4c-0.8,0-1.4,0.2-1.8,0.7s-0.7,1.1-0.8,1.9h5c0-0.4-0.1-0.7-0.2-1c-0.1-0.3-0.3-0.6-0.5-0.8
			c-0.2-0.2-0.4-0.4-0.7-0.5C362.4,237.5,362,237.4,361.7,237.4z"/>
	</g>
	<g>
		<path fill="#667F8D" d="M372.8,237.9c-0.1,0.1-0.2,0.2-0.3,0.2c-0.1,0-0.2,0-0.3-0.1c-0.1-0.1-0.3-0.1-0.4-0.2
			c-0.2-0.1-0.4-0.2-0.6-0.2c-0.2-0.1-0.5-0.1-0.8-0.1c-0.3,0-0.5,0-0.7,0.1c-0.2,0.1-0.4,0.2-0.6,0.3s-0.3,0.3-0.4,0.4
			c-0.1,0.2-0.1,0.3-0.1,0.5c0,0.2,0.1,0.4,0.2,0.6c0.1,0.2,0.3,0.3,0.5,0.4s0.5,0.2,0.8,0.3c0.3,0.1,0.6,0.2,0.9,0.3
			c0.3,0.1,0.6,0.2,0.9,0.3c0.3,0.1,0.5,0.3,0.8,0.5c0.2,0.2,0.4,0.4,0.5,0.7c0.1,0.3,0.2,0.6,0.2,1c0,0.4-0.1,0.8-0.2,1.2
			c-0.2,0.4-0.4,0.7-0.7,0.9c-0.3,0.3-0.7,0.5-1.1,0.6c-0.4,0.2-0.9,0.2-1.5,0.2c-0.6,0-1.2-0.1-1.7-0.3c-0.5-0.2-1-0.5-1.3-0.8
			l0.4-0.6c0-0.1,0.1-0.1,0.2-0.2c0.1,0,0.2-0.1,0.3-0.1c0.1,0,0.2,0,0.3,0.1c0.1,0.1,0.3,0.2,0.4,0.3c0.2,0.1,0.4,0.2,0.6,0.3
			c0.2,0.1,0.6,0.1,0.9,0.1c0.3,0,0.6,0,0.8-0.1c0.2-0.1,0.4-0.2,0.6-0.3c0.2-0.1,0.3-0.3,0.4-0.5s0.1-0.4,0.1-0.6
			c0-0.3-0.1-0.5-0.2-0.6c-0.1-0.2-0.3-0.3-0.5-0.4c-0.2-0.1-0.5-0.2-0.8-0.3c-0.3-0.1-0.6-0.2-0.9-0.3c-0.3-0.1-0.6-0.2-0.9-0.3
			c-0.3-0.1-0.5-0.3-0.8-0.5c-0.2-0.2-0.4-0.4-0.5-0.7c-0.1-0.3-0.2-0.6-0.2-1c0-0.4,0.1-0.7,0.2-1c0.1-0.3,0.4-0.6,0.6-0.9
			c0.3-0.2,0.6-0.4,1-0.6c0.4-0.1,0.9-0.2,1.4-0.2c0.6,0,1.2,0.1,1.6,0.3c0.5,0.2,0.9,0.5,1.3,0.8L372.8,237.9z"/>
	</g>
</g>
<g>
	<rect x="194.6" y="65.6" fill="#667F8D" width="3.3" height="32.1"/>
</g>
<g>
	<rect x="194.6" y="246.1" fill="#667F8D" width="3.3" height="31.5"/>
</g>
<g>
	<path fill="#667F8D" d="M284.3,246.8c-1.8,0-3.5-0.6-4.9-1.7c-3.5-2.7-4.2-7.7-1.5-11.2c1.5-2,3.8-3.1,6.3-3.1
		c1.8,0,3.5,0.6,4.9,1.7c3.5,2.7,4.2,7.7,1.5,11.2C289.1,245.6,286.8,246.8,284.3,246.8z M284.3,234.1c-1.5,0-2.8,0.7-3.7,1.8
		c-1.6,2.1-1.2,5,0.9,6.6c2,1.5,5,1.1,6.6-0.9c1.6-2.1,1.2-5-0.9-6.6C286.3,234.4,285.4,234.1,284.3,234.1z"/>
</g>
<g>
	<path fill="#667F8D" d="M108.2,111.5c-1.8,0-3.5-0.6-4.9-1.7c-3.5-2.7-4.2-7.7-1.5-11.2c1.5-2,3.8-3.1,6.3-3.1
		c1.8,0,3.5,0.6,4.9,1.7c1.7,1.3,2.8,3.2,3.1,5.3c0.3,2.1-0.3,4.2-1.6,5.9C113.1,110.4,110.8,111.5,108.2,111.5z M108.3,98.8
		c-1.5,0-2.8,0.7-3.7,1.8c-1.6,2.1-1.2,5,0.9,6.6c2,1.5,5,1.1,6.6-0.9c0.8-1,1.1-2.2,0.9-3.5c-0.2-1.2-0.8-2.3-1.8-3.1
		C110.3,99.1,109.3,98.8,108.3,98.8z"/>
</g>
<g>
	
		<rect x="251.3" y="224" transform="matrix(0.793 0.6092 -0.6092 0.793 192.8323 -116.1243)" fill="#667F8D" width="32.1" height="3.3"/>
</g>
<g>
	
		<rect x="108.6" y="114.2" transform="matrix(0.793 0.6092 -0.6092 0.793 96.3285 -51.766)" fill="#667F8D" width="31.5" height="3.3"/>
</g>
<g>
	<path fill="#667F8D" d="M107.9,246.4c-2.5,0-4.8-1.1-6.4-3.2c-2.7-3.5-2-8.5,1.5-11.2c1.4-1.1,3.1-1.6,4.8-1.6
		c2.5,0,4.8,1.1,6.4,3.2c1.3,1.7,1.8,3.8,1.6,5.9c-0.3,2.1-1.4,4-3.1,5.3C111.4,245.8,109.7,246.4,107.9,246.4z M107.9,233.7
		c-1,0-2,0.3-2.8,1c-2.1,1.6-2.5,4.5-0.9,6.6c1.5,2,4.6,2.4,6.6,0.9c1-0.8,1.6-1.9,1.8-3.1c0.2-1.2-0.2-2.5-0.9-3.5
		C110.8,234.4,109.4,233.7,107.9,233.7z"/>
</g>
<g>
	<path fill="#667F8D" d="M284.6,111.9c-2.5,0-4.8-1.1-6.4-3.2c-1.3-1.7-1.8-3.8-1.6-5.9c0.3-2.1,1.4-4,3.1-5.3
		c1.4-1.1,3.1-1.6,4.8-1.6c2.5,0,4.8,1.1,6.4,3.2c1.3,1.7,1.8,3.8,1.6,5.9c-0.3,2.1-1.4,4-3.1,5.3
		C288.1,111.3,286.4,111.9,284.6,111.9z M284.6,99.2c-1,0-2,0.3-2.8,1c-1,0.8-1.6,1.9-1.8,3.1c-0.2,1.2,0.2,2.5,0.9,3.5
		c1.5,2,4.6,2.4,6.6,0.9c1-0.8,1.6-1.9,1.8-3.1c0.2-1.2-0.2-2.5-0.9-3.5C287.5,99.9,286.1,99.2,284.6,99.2z"/>
</g>
<g>
	
		<rect x="123.4" y="209.4" transform="matrix(0.6055 0.7959 -0.7959 0.6055 228.7005 -10.5845)" fill="#667F8D" width="3.3" height="32.1"/>
</g>
<g>
	
		<rect x="266.8" y="100.4" transform="matrix(0.6055 0.7959 -0.7959 0.6055 198.3941 -167.8309)" fill="#667F8D" width="3.3" height="31.5"/>
</g>
</svg>
