<?xml version="1.0" encoding="utf-8"?>
<!-- Generator: Adobe Illustrator 18.1.1, SVG Export Plug-In . SVG Version: 6.00 Build 0)  -->
<svg version="1.1" id="Layer_1" xmlns="http://www.w3.org/2000/svg" xmlns:xlink="http://www.w3.org/1999/xlink" x="0px" y="0px"
	 width="60px" height="60px" viewBox="0 0 60 60" enable-background="new 0 0 60 60" xml:space="preserve">
<g>
	<g>
		<path fill="#667E8C" d="M30.4,58.8l-0.2,0c-7.7-0.1-15-3.1-20.4-8.7c-5.4-5.5-8.4-12.8-8.3-20.6c0.1-15.9,13.1-28.8,29-28.8l0.2,0
			c7.7,0.1,15,3.1,20.4,8.7c5.4,5.5,8.4,12.8,8.3,20.6C59.3,45.9,46.3,58.8,30.4,58.8z M30.4,2.8c-14.8,0-26.9,12-27,26.8
			c-0.1,7.2,2.7,14,7.7,19.2c5.1,5.1,11.8,8,19,8.1l0.2,0c14.8,0,26.9-12,27-26.8c0.1-7.2-2.7-14-7.8-19.2c-5.1-5.1-11.8-8-19-8.1
			L30.4,2.8z"/>
	</g>
	<g>
		<path fill="#667E8C" d="M33.4,27.8c-0.3,0-0.5-0.1-0.7-0.3c-0.4-0.4-0.4-1,0-1.4l11.1-10.9c0.4-0.4,1-0.4,1.4,0
			c0.4,0.4,0.4,1,0,1.4L34.1,27.5C33.9,27.7,33.7,27.8,33.4,27.8z"/>
	</g>
	<g>
		<path fill="#667E8C" d="M12.4,30.6C12.4,30.6,12.4,30.6,12.4,30.6l-4,0c-0.6,0-1-0.5-1-1c0-0.5,0.5-1,1-1c0,0,0,0,0,0l4,0
			c0.6,0,1,0.5,1,1C13.4,30.2,13,30.6,12.4,30.6z"/>
	</g>
	<g>
		<path fill="#667E8C" d="M13.8,23.8c-0.1,0-0.3,0-0.4-0.1l-3.7-1.6c-0.5-0.2-0.7-0.8-0.5-1.3c0.2-0.5,0.8-0.7,1.3-0.5l3.7,1.6
			c0.5,0.2,0.7,0.8,0.5,1.3C14.6,23.5,14.2,23.8,13.8,23.8z"/>
	</g>
	<g>
		<path fill="#667E8C" d="M17.8,18c-0.3,0-0.5-0.1-0.7-0.3l-2.8-2.9c-0.4-0.4-0.4-1,0-1.4c0.4-0.4,1-0.4,1.4,0l2.8,2.9
			c0.4,0.4,0.4,1,0,1.4C18.3,17.9,18,18,17.8,18z"/>
	</g>
	<g>
		<path fill="#667E8C" d="M23.7,14.1c-0.4,0-0.8-0.2-0.9-0.6l-1.5-3.7c-0.2-0.5,0-1.1,0.6-1.3c0.5-0.2,1.1,0,1.3,0.6l1.5,3.7
			c0.2,0.5,0,1.1-0.6,1.3C23.9,14.1,23.8,14.1,23.7,14.1z"/>
	</g>
	<g>
		<path fill="#667E8C" d="M30.6,12.8C30.6,12.8,30.5,12.8,30.6,12.8c-0.6,0-1-0.5-1-1l0-4c0-0.5,0.5-1,1-1c0,0,0,0,0,0
			c0.6,0,1,0.5,1,1l0,4C31.5,12.3,31.1,12.8,30.6,12.8z"/>
	</g>
	<g>
		<path fill="#667E8C" d="M37.4,14.2c-0.1,0-0.3,0-0.4-0.1c-0.5-0.2-0.7-0.8-0.5-1.3l1.6-3.7c0.2-0.5,0.8-0.7,1.3-0.5
			c0.5,0.2,0.7,0.8,0.5,1.3l-1.6,3.7C38.2,14,37.8,14.2,37.4,14.2z"/>
	</g>
	<g>
		<path fill="#667E8C" d="M47.1,24c-0.4,0-0.8-0.2-0.9-0.6c-0.2-0.5,0-1.1,0.6-1.3l3.7-1.5c0.5-0.2,1.1,0,1.3,0.6
			c0.2,0.5,0,1.1-0.6,1.3L47.5,24C47.3,24,47.2,24,47.1,24z"/>
	</g>
	<g>
		<path fill="#667E8C" d="M52.4,31C52.4,31,52.4,31,52.4,31l-4,0c-0.6,0-1-0.5-1-1c0-0.5,0.5-1,1-1c0,0,0,0,0,0l4,0c0.6,0,1,0.5,1,1
			C53.4,30.5,53,31,52.4,31z"/>
	</g>
	<g>
		<path fill="#667E8C" d="M50.7,39.4c-0.1,0-0.3,0-0.4-0.1l-3.7-1.6c-0.5-0.2-0.7-0.8-0.5-1.3c0.2-0.5,0.8-0.7,1.3-0.5l3.7,1.6
			c0.5,0.2,0.7,0.8,0.5,1.3C51.4,39.1,51,39.4,50.7,39.4z"/>
	</g>
	<g>
		<path fill="#667E8C" d="M10,39c-0.4,0-0.8-0.2-0.9-0.6c-0.2-0.5,0-1.1,0.6-1.3l3.7-1.5c0.5-0.2,1.1,0,1.3,0.6
			c0.2,0.5,0,1.1-0.6,1.3L10.4,39C10.3,39,10.1,39,10,39z"/>
	</g>
	<g>
		<path fill="#667E8C" d="M40.3,48.9C40.3,48.9,40.3,48.9,40.3,48.9l-20-0.2c-0.3,0-0.5-0.1-0.7-0.3s-0.3-0.4-0.3-0.7l0-6
			c0-0.5,0.5-1,1-1c0,0,0,0,0,0l20,0.2c0.3,0,0.5,0.1,0.7,0.3s0.3,0.4,0.3,0.7l0,6c0,0.3-0.1,0.5-0.3,0.7
			C40.8,48.8,40.5,48.9,40.3,48.9z M21.3,46.7l18,0.1l0-4l-18-0.1L21.3,46.7z"/>
	</g>
	<g>
		<path fill="#667E8C" d="M30.4,34.8C30.4,34.8,30.4,34.8,30.4,34.8c-1.4,0-2.6-0.5-3.6-1.5s-1.4-2.2-1.4-3.5c0-2.7,2.3-5,5-5
			c2.8,0,5,2.3,5,5C35.4,32.6,33.1,34.8,30.4,34.8z M30.4,26.8c-1.7,0-3,1.3-3,3c0,0.8,0.3,1.6,0.9,2.1s1.3,0.9,2.1,0.9l0,1v-1
			c1.6,0,3-1.3,3-3C33.4,28.2,32.1,26.8,30.4,26.8z"/>
	</g>
</g>
</svg>
