<?xml version="1.0" encoding="utf-8"?>
<!-- Generator: Adobe Illustrator 18.1.1, SVG Export Plug-In . SVG Version: 6.00 Build 0)  -->
<svg version="1.1" id="Layer_1" xmlns="http://www.w3.org/2000/svg" xmlns:xlink="http://www.w3.org/1999/xlink" x="0px" y="0px"
	 width="56px" height="72px" viewBox="0 0 56 72" enable-background="new 0 0 56 72" xml:space="preserve">
<g>
	<g>
		<path fill="#667E8C" d="M31.1,36.3h-4.3c-0.6,0-1-0.4-1-1v-2.8c-0.1,0-0.1,0-0.2-0.1c-0.4-0.1-0.9-0.3-1.3-0.5l-2,2
			c-0.4,0.4-1,0.4-1.4,0l-3.1-3.1c-0.2-0.2-0.3-0.4-0.3-0.7s0.1-0.5,0.3-0.7l2-2c-0.3-0.7-0.5-1.5-0.7-2.3h-2.7c-0.6,0-1-0.4-1-1
			v-3.4c0-0.6,0.4-1,1-1h2.8c0.2-0.4,0.4-1,0.6-1.5l-2-2c-0.4-0.4-0.4-1,0-1.4l3.1-3.1c0.4-0.4,1-0.4,1.4,0l2,2
			c0.5-0.2,1-0.4,1.5-0.6v-2.8c0-0.6,0.4-1,1-1h4.3c0.6,0,1,0.4,1,1v2.8c0.4,0.2,1,0.4,1.5,0.6l2-2c0.4-0.4,1-0.4,1.4,0l3.1,3.1
			c0.4,0.4,0.4,1,0,1.4l-2,2c0.2,0.5,0.4,1,0.6,1.5h2.8c0.6,0,1,0.4,1,1v3.4c0,0.6-0.4,1-1,1h-2.6c-0.2,1.2-0.4,1.8-0.7,2.3l1.9,1.9
			c0.4,0.4,0.4,1,0,1.4l-3.1,3.1c-0.4,0.4-1,0.4-1.4,0l-2-2c-0.4,0.2-0.9,0.3-1.3,0.5c-0.1,0-0.1,0-0.2,0.1v2.8
			C32.1,35.8,31.6,36.3,31.1,36.3z M27.8,34.3h2.3v-2.5c0-0.4,0.2-0.7,0.5-0.9c0.2-0.1,0.6-0.2,1-0.4c0.5-0.2,1.2-0.4,1.6-0.7
			c0.4-0.2,0.9-0.2,1.2,0.1l1.8,1.8l1.6-1.6l-1.8-1.8c-0.3-0.3-0.4-0.8-0.1-1.2c0.5-0.8,0.7-1.2,0.9-3.1c0.1-0.5,0.5-0.9,1-0.9h2.5
			v-1.4h-2.5c-0.5,0-0.9-0.3-1-0.8c-0.2-0.8-0.5-1.7-1-2.4c-0.2-0.4-0.2-0.9,0.1-1.2l1.8-1.8l-1.7-1.6l-1.8,1.8
			c-0.3,0.3-0.8,0.4-1.2,0.1c-0.7-0.4-1.9-0.9-2.3-1c-0.5-0.1-0.8-0.5-0.8-1v-2.5h-2.3v2.5c0,0.5-0.3,0.9-0.8,1
			c-0.5,0.1-1.6,0.5-2.3,1c-0.4,0.2-0.9,0.2-1.2-0.1l-1.8-1.8L20,15.6l1.8,1.8c0.3,0.3,0.4,0.8,0.1,1.2c-0.4,0.7-0.9,1.9-1,2.4
			c-0.1,0.4-0.5,0.8-1,0.8h-2.5v1.4H20c0.5,0,0.9,0.4,1,0.9c0.2,1.2,0.5,2.4,0.9,3.1c0.2,0.4,0.2,0.9-0.1,1.2L20,30.1l1.7,1.6
			l1.8-1.8c0.3-0.3,0.8-0.4,1.2-0.1c0.4,0.2,1.1,0.5,1.6,0.7c0.4,0.1,0.7,0.3,1,0.4c0.3,0.2,0.5,0.5,0.5,0.9V34.3z"/>
	</g>
	<g>
		<path fill="#667E8C" d="M28.9,28.6c-3.2,0-5.7-2.6-5.7-5.7s2.6-5.7,5.7-5.7s5.7,2.6,5.7,5.7S32.1,28.6,28.9,28.6z M28.9,19.1
			c-2.1,0-3.7,1.7-3.7,3.7c0,2.1,1.7,3.7,3.7,3.7c2.1,0,3.7-1.7,3.7-3.7C32.7,20.8,31,19.1,28.9,19.1z"/>
	</g>
</g>
<g>
	<g>
		<path fill="#667E8C" d="M27.1,71.3c-0.2,0-0.3,0-0.5-0.1c-0.7-0.2-1.2-0.7-1.4-1.4c-1.2-4.7-4-10.1-6.5-10.8
			c-0.6-0.2-2.1,0-3.6,0.2c-1.3,0.1-2.6,0.3-3.9,0.3c-3.3,0-5.1-1.2-5.5-3.4C5.6,55,5.5,54,5.3,53c-0.5-4-1.1-8.1-3.9-10.1
			c-2.7-1.8-0.7-5.3,0.9-8c0.8-1.5,1.9-3.3,1.8-4.2l-0.2-1.3c-1-7-1.8-13,4.4-19.3C14.4,4.3,21,1.4,28.1,1.4
			c10.5,0,18.6,6.6,21.7,10.4c4.4,5.5,7,15.6,3.3,23.4c-0.8,1.7-1.9,3.4-3.2,5.2c-2.6,3.8-5.5,8.1-4.2,12.3c0.2,0.7,0,1.5-0.5,2
			l-16.8,16C28.1,71.1,27.6,71.3,27.1,71.3z M17.9,57c0.6,0,1,0,1.3,0.1c4,1.1,6.9,8.3,7.9,12.1l16.7-16c-1.6-5,1.6-9.8,4.4-14
			c1.2-1.7,2.3-3.3,3-4.9c3.4-7.1,0.9-16.3-3.1-21.3c-2.9-3.6-10.3-9.7-20.1-9.7c-6.5,0-12.7,2.7-18.5,8.2
			c-5.5,5.6-4.8,10.6-3.8,17.6L6,30.4c0.2,1.5-0.9,3.4-2,5.4c-1.5,2.7-2.5,4.7-1.5,5.4c3.6,2.5,4.2,7.1,4.8,11.5c0.1,1,0.3,2,0.4,3
			c0.1,0.5,0.3,1.7,3.5,1.7c1.2,0,2.4-0.1,3.6-0.3C15.9,57.1,17,57,17.9,57z"/>
	</g>
</g>
</svg>
