<?xml version="1.0" encoding="utf-8"?>
<!-- Generator: Adobe Illustrator 18.1.1, SVG Export Plug-In . SVG Version: 6.00 Build 0)  -->
<svg version="1.1" id="Layer_1" xmlns="http://www.w3.org/2000/svg" xmlns:xlink="http://www.w3.org/1999/xlink" x="0px" y="0px"
	 width="56px" height="57px" viewBox="0 0 56 57" enable-background="new 0 0 56 57" xml:space="preserve">
<path fill="#667E8C" d="M54,30.1c1.2-0.9,2-2.4,2-4c0-2.8-2.2-5-5-5h-6h-1h-4.7c0.9-3.9,1.7-11.4,1.7-14c0-5-2.7-6-5-6
	c-1.5,0-4,0.6-4,5c0,6-8.8,18.6-10.5,21h-1.8c-0.1-0.4-0.3-0.8-0.6-1.1c-0.5-0.6-1.3-0.9-2.1-0.9H5c-1.7,0-3,1.3-3,3v23
	c0,1.7,1.3,3,3,3h9c1.6,0,3-1.3,3.2-2.9l2.5-22.1H22c0.3,0,0.6-0.2,0.8-0.4C23.3,28.1,34,13.3,34,6.1c0-2.1,0.6-3,2-3
	c1.6,0,3,0.5,3,4c0,3.1-1,11.9-1.9,14.7c-0.1,0.3-0.1,0.6,0.1,0.9c0.2,0.3,0.5,0.4,0.8,0.4h6h1h6c1.7,0,3,1.3,3,3c0,1.7-1.3,3-3,3
	h-2c-0.6,0-1,0.4-1,1c0,0.6,0.4,1,1,1h2c1.7,0,3,1.3,3,3c0,1.7-1.3,3-3,3h-1c-0.1,0-0.2,0-0.3,0.1c-0.2,0-0.4-0.1-0.7-0.1h-1
	c-0.6,0-1,0.4-1,1s0.4,1,1,1h1c1.7,0,3,1.3,3,3c0,1.7-1.3,3-3,3h-1c-0.1,0-0.2,0-0.3,0.1c-0.1,0-0.2-0.1-0.3-0.1h-0.9
	c-0.6,0-1,0.4-1,1s0.4,1,1,1c1.4,0,2.5,1.1,2.5,2.5c0,1.4-1.3,2.5-3,2.5h-8h-3h-3.5c-3.7,0-7.2-0.5-8.1-0.9l-2-1
	c-0.5-0.2-1.1,0-1.3,0.4c-0.2,0.5,0,1.1,0.4,1.3l2,1c1.4,0.7,5.7,1.1,8.9,1.1H35h3h8c2.8,0,5-2,5-4.5c0-1-0.3-1.9-0.9-2.6
	c2.2-0.5,3.9-2.5,3.9-4.9c0-1.3-0.5-2.4-1.3-3.3c1.9-0.7,3.3-2.5,3.3-4.7C56,32.4,55.2,31,54,30.1z M15.2,51
	c-0.1,0.6-0.6,1.1-1.2,1.1H5c-0.6,0-1-0.4-1-1v-23c0-0.6,0.4-1,1-1h12c0.2,0,0.5,0.1,0.6,0.3c0.1,0.2,0.2,0.4,0.2,0.6L15.2,51z"/>
</svg>
