<?xml version="1.0" encoding="utf-8"?>
<!-- Generator: Adobe Illustrator 18.1.1, SVG Export Plug-In . SVG Version: 6.00 Build 0)  -->
<svg version="1.1" id="Layer_1" xmlns="http://www.w3.org/2000/svg" xmlns:xlink="http://www.w3.org/1999/xlink" x="0px" y="0px"
	 width="60px" height="60px" viewBox="0 0 60 60" enable-background="new 0 0 60 60" xml:space="preserve">
<g>
	<path fill="#FFFFFF" d="M30.2,1.3C14.3,1.3,1.4,14.2,1.4,30.1s12.9,28.8,28.8,28.8S59,46,59,30.1S46.1,1.3,30.2,1.3z M30.2,56.9
		c-14.8,0-26.8-12-26.8-26.8c0-14.8,12-26.8,26.8-26.8C45,3.3,57,15.3,57,30.1C57,44.9,45,56.9,30.2,56.9z"/>
	<polygon fill="#FFFFFF" points="29.6,15.4 28.2,16.8 40.9,29 15,29 15,31 39.9,31 28.2,42.3 29.6,43.7 42.8,31 43,31 43,30.8 
		44.3,29.5 	"/>
</g>
</svg>
