<?xml version="1.0" encoding="utf-8"?>
<!-- Generator: Adobe Illustrator 18.1.1, SVG Export Plug-In . SVG Version: 6.00 Build 0)  -->
<svg version="1.1" id="Layer_1" xmlns="http://www.w3.org/2000/svg" xmlns:xlink="http://www.w3.org/1999/xlink" x="0px" y="0px"
	 width="72px" height="72px" viewBox="0 0 72 72" enable-background="new 0 0 72 72" xml:space="preserve">
<g>
	<path fill="#424242" d="M21.1,56.6l1.9-1.9c0.1-0.1,0.1-0.3,0-0.3s-0.3-0.1-0.3,0l-1.5,1.5l0-5.2c0-0.1-0.1-0.2-0.2-0.2
		c-0.1,0-0.1,0-0.2,0.1c0,0-0.1,0.1-0.1,0.2l0,5.2l-1.5-1.5c-0.1-0.1-0.3-0.1-0.3,0c-0.1,0.1-0.1,0.3,0,0.3l1.9,1.9
		C20.8,56.7,21,56.7,21.1,56.6z"/>
	<path fill="#667E8C" d="M20.9,57.1L20.9,57.1c-0.2,0-0.4-0.1-0.5-0.2L18.5,55c-0.1-0.1-0.2-0.3-0.2-0.5c0-0.2,0.1-0.4,0.2-0.5
		c0.3-0.3,0.8-0.3,1.1,0l0.6,0.6l0-3.9c0-0.2,0.1-0.4,0.2-0.5c0.3-0.3,0.8-0.3,1.1,0c0.1,0.1,0.2,0.3,0.2,0.5l0,3.9l0.6-0.6
		c0.3-0.3,0.8-0.3,1.1,0c0.3,0.3,0.3,0.8,0,1.1l-1.9,1.9C21.3,57.1,21.1,57.1,20.9,57.1z"/>
</g>
<g>
	<path fill="#424242" d="M21.3,22.6l1.9-1.9c0.1-0.1,0.1-0.3,0-0.3c-0.1-0.1-0.3-0.1-0.3,0l-1.5,1.5l0-5.2c0-0.1-0.1-0.2-0.2-0.2
		c-0.1,0-0.1,0-0.2,0.1c0,0-0.1,0.1-0.1,0.2l0,5.2l-1.5-1.5c-0.1-0.1-0.3-0.1-0.3,0c-0.1,0.1-0.1,0.3,0,0.3l1.9,1.9
		C21.1,22.7,21.2,22.7,21.3,22.6z"/>
	<path fill="#667E8C" d="M21.2,23.2c-0.2,0-0.4-0.1-0.5-0.2L18.7,21c-0.1-0.1-0.2-0.3-0.2-0.5c0-0.2,0.1-0.4,0.2-0.5
		c0.3-0.3,0.8-0.3,1.1,0l0.6,0.6l0-3.9c0-0.2,0.1-0.4,0.2-0.5c0.1-0.1,0.3-0.2,0.5-0.2c0.2,0,0.4,0.1,0.5,0.2
		c0.1,0.1,0.2,0.3,0.2,0.5l0,3.9l0.6-0.6c0.3-0.3,0.8-0.3,1.1,0c0.3,0.3,0.3,0.8,0,1.1L21.7,23C21.5,23.1,21.4,23.2,21.2,23.2z"/>
</g>
<g>
	<path fill="#424242" d="M48.9,35.9L47,34c-0.1-0.1-0.3-0.1-0.3,0c-0.1,0.1-0.1,0.3,0,0.3l1.5,1.5l-5.2,0c-0.1,0-0.2,0.1-0.2,0.2
		c0,0.1,0,0.1,0.1,0.2c0,0,0.1,0.1,0.2,0.1l5.2,0l-1.5,1.5c-0.1,0.1-0.1,0.3,0,0.3c0.1,0.1,0.3,0.1,0.3,0l1.9-1.9
		C49,36.2,49,36,48.9,35.9z"/>
	<path fill="#667E8C" d="M46.8,38.8L46.8,38.8c-0.2,0-0.4-0.1-0.5-0.2c-0.3-0.3-0.3-0.8,0-1.1l0.6-0.6l-3.9,0
		c-0.2,0-0.4-0.1-0.5-0.2c-0.1-0.1-0.2-0.3-0.2-0.5c0-0.4,0.3-0.7,0.7-0.7l4,0l-0.6-0.6c-0.1-0.1-0.2-0.3-0.2-0.5s0.1-0.4,0.2-0.5
		c0.3-0.3,0.8-0.3,1.1,0l1.9,1.9c0.3,0.3,0.3,0.8,0,1.1l-1.9,1.9C47.2,38.7,47,38.8,46.8,38.8z"/>
</g>
<g>
	<path fill="#667E8C" d="M21,48.2L0.9,36l20.3-11.9l20.2,12.2L21,48.2z M4.8,36L21,45.8l16.4-9.6l-16.3-9.8L4.8,36z"/>
</g>
<g>
	<path fill="#667E8C" d="M28.1,71L5,70.8l6.4-12.4l23.1,0.2L28.1,71z M8.3,68.8L26.9,69l4.3-8.4l-18.6-0.2L8.3,68.8z"/>
</g>
<g>
	<path fill="#667E8C" d="M65,43.3L65,43.3L65,43.3l-7.8-0.1c-3.8,0-6.8-3.1-6.8-6.9c0-3.8,3.1-6.8,6.8-6.8l7.8,0.1
		c3.8,0,6.8,3.2,6.8,6.9C71.8,40.2,68.8,43.3,65,43.3z M57.3,31.5c-2.7,0-4.9,2.2-4.9,4.8c0,2.7,2.1,4.9,4.8,4.9l7.7,0.1l0,1v-1
		c2.6,0,4.8-2.2,4.8-4.8c0-2.7-2.1-4.9-4.8-4.9L57.3,31.5z"/>
</g>
<g>
	<path fill="#667E8C" d="M27.6,14.7C27.6,14.7,27.6,14.7,27.6,14.7L27.6,14.7l-12.1-0.1c-3.8,0-6.8-3.1-6.8-6.9
		c0-3.7,3.1-6.8,6.9-6.8L27.7,1c1.8,0,3.5,0.7,4.8,2c1.3,1.3,2,3,2,4.9C34.5,11.7,31.4,14.7,27.6,14.7z M15.7,2.9
		c-2.7,0-4.9,2.2-4.9,4.8c0,2.7,2.1,4.9,4.8,4.9l12,0.1l0,1v-1c2.7,0,4.8-2.2,4.9-4.8c0-1.3-0.5-2.5-1.4-3.4C30.2,3.5,29,3,27.7,3
		L15.7,2.9z"/>
</g>
</svg>
