<?xml version="1.0" encoding="utf-8"?>
<!-- Generator: Adobe Illustrator 18.1.1, SVG Export Plug-In . SVG Version: 6.00 Build 0)  -->
<svg version="1.1" id="Layer_1" xmlns="http://www.w3.org/2000/svg" xmlns:xlink="http://www.w3.org/1999/xlink" x="0px" y="0px"
	 width="55px" height="62px" viewBox="0 0 55 62" enable-background="new 0 0 55 62" xml:space="preserve">
<g>
	<path fill="#667E8C" d="M53.9,7l-25.1-7C28.5,0,28.2,0,28,0.1L2.9,7C2.2,7.2,1.8,7.8,1.8,8.5v20.9c0,7.7,3.6,15,9.8,19.6l16,12.1
		c0.3,0.2,0.6,0.3,0.9,0.3c0.3,0,0.6-0.1,0.9-0.3l16-12.1c6.1-4.6,9.8-12,9.8-19.6V8.5C55,7.8,54.6,7.2,53.9,7z M52,29.4
		c0,6.7-3.2,13.2-8.6,17.3L28.4,58.1L13.3,46.6C8,42.6,4.7,36.1,4.7,29.4V9.6L28.4,3L52,9.6V29.4z"/>
	<path fill="#667E8C" d="M16.7,30.5c-0.7-0.4-1.6-0.2-2.1,0.5c-0.4,0.7-0.2,1.6,0.5,2.1l11.3,7.2c0.3,0.2,0.7,0.3,1.1,0.2
		c0.4-0.1,0.7-0.3,0.9-0.7l12.9-20.2c0.4-0.7,0.2-1.6-0.5-2.1c-0.7-0.4-1.6-0.2-2.1,0.5L26.8,36.9L16.7,30.5z"/>
</g>
</svg>
