<?xml version="1.0" encoding="utf-8"?>
<!-- Generator: Adobe Illustrator 18.1.1, SVG Export Plug-In . SVG Version: 6.00 Build 0)  -->
<svg version="1.1" id="Layer_1" xmlns="http://www.w3.org/2000/svg" xmlns:xlink="http://www.w3.org/1999/xlink" x="0px" y="0px"
	 width="200px" height="55px" viewBox="-379 253 200 55" enable-background="new -379 253 200 55" xml:space="preserve">
<g>
	<path fill="#5B676E" d="M-332.8,256.1v25.1h-3.7v-19.3l-7.5,11.7h-3.1l-7.5-11.7v19.2h-3.7v-25h4.2l0,0h0.2l8.3,13l8.3-13
		C-337.3,256.1-332.8,256.1-332.8,256.1z"/>
	<path fill="#5B676E" d="M-318.9,268.3c0-7.1,5.7-12.8,12.9-12.8c7.1,0,12.8,5.7,12.8,12.8c0,7.1-5.7,12.9-12.8,12.9
		C-313.2,281.2-318.9,275.4-318.9,268.3z M-315.3,268.3c0,5.1,4.1,9.2,9.2,9.2c5,0,9.2-4.1,9.2-9.2c0-5-4.1-9.2-9.2-9.2
		C-311.1,259.1-315.3,263.2-315.3,268.3z"/>
	<path fill="#5B676E" d="M-261,262.9c-1.7-2.3-4.4-3.8-7.4-3.8c-5.1,0-9.2,4.1-9.2,9.2c0,5.1,4.1,9.2,9.2,9.2c3,0,5.7-1.5,7.4-3.8
		l2.7,2.7c-2.4,2.9-6,4.8-10,4.8c-7.1,0-12.9-5.7-12.9-12.9c0-7.1,5.7-12.8,12.9-12.8c4,0,7.7,1.9,10,4.8L-261,262.9z"/>
	<path fill="#5B676E" d="M-252.4,281.2l14.5-25l14.5,25H-252.4z M-246,277.5h16.2l-8.1-14L-246,277.5z"/>
	<path fill="#5B676E" d="M-215.5,281.2v-25.1h3.7v21.4h14v3.7H-215.5z"/>
	<path fill="#5B676E" d="M-377.6,294.3v-1.9h10.4v1.9h-4.3V305h-1.8v-10.7H-377.6z"/>
	<path fill="#5B676E" d="M-360.3,292.4h9.1v1.9h-7.2v3.5h7.2v1.8h-7.2v3.5h7.2v1.9h-9.1C-360.3,305-360.3,292.4-360.3,292.4z"/>
	<path fill="#5B676E" d="M-334.1,295.8c-0.8-1.1-2.2-1.9-3.7-1.9c-2.5,0-4.6,2.1-4.6,4.6s2.1,4.6,4.6,4.6c1.5,0,2.9-0.8,3.7-1.9
		l1.3,1.3c-1.2,1.5-3,2.4-5,2.4c-3.6,0-6.4-2.9-6.4-6.4s2.9-6.4,6.4-6.4c2,0,3.8,0.9,5,2.4L-334.1,295.8z"/>
	<path fill="#5B676E" d="M-316.9,297.8v-5.4h1.8V305h-1.8v-5.3h-7.1v5.3h-1.8v-12.6h1.8v5.4C-324,297.8-316.9,297.8-316.9,297.8z"/>
	<path fill="#5B676E" d="M-297.6,292.4h1.8V305h-1.8l-7.8-9.6v9.6h-1.8v-12.6h1.8l7.8,9.6V292.4z"/>
	<path fill="#5B676E" d="M-288.8,298.5c0-3.5,2.9-6.4,6.4-6.4s6.4,2.9,6.4,6.4c0,3.6-2.9,6.4-6.4,6.4
		C-285.9,305-288.8,302.1-288.8,298.5z M-286.9,298.5c0,2.5,2.1,4.6,4.6,4.6s4.6-2.1,4.6-4.6s-2.1-4.6-4.6-4.6
		C-284.9,293.9-286.9,296-286.9,298.5z"/>
	<path fill="#5B676E" d="M-269,305v-12.6h1.8v10.7h7v1.9H-269z"/>
	<path fill="#5B676E" d="M-254.2,298.5c0-3.5,2.9-6.4,6.4-6.4c3.5,0,6.4,2.9,6.4,6.4c0,3.6-2.9,6.4-6.4,6.4
		C-251.3,305-254.2,302.1-254.2,298.5z M-252.3,298.5c0,2.5,2.1,4.6,4.6,4.6s4.6-2.1,4.6-4.6s-2.1-4.6-4.6-4.6
		C-250.3,293.9-252.3,296-252.3,298.5z"/>
	<path fill="#5B676E" d="M-222.5,297.6c0,0.3,0.1,0.6,0.1,0.9c0,1.5-0.5,2.9-1.4,4c-0.3,0.3-0.5,0.6-0.9,0.9l0,0l-0.1,0.1
		c-0.1,0-0.1,0.1-0.1,0.1c-0.2,0.1-0.4,0.3-0.6,0.4l0,0l-0.1,0.1l0,0c-0.1,0-0.1,0-0.2,0.1c0,0-0.1,0.1-0.2,0.1l-0.1,0.1l0,0
		l-0.3,0.1l0,0l-0.1,0.1l0,0h-0.1h-0.1h-0.1l0,0h-0.1h-0.1h-0.1l0,0l-0.3,0.1c0,0,0,0-0.1,0h-0.1c0,0,0,0-0.1,0h-0.1h-0.1h-0.1h-0.1
		h-0.1h-0.1h-0.1h-0.1c-0.1,0-0.1,0-0.2,0c-3.6,0-6.4-2.9-6.4-6.4s2.9-6.4,6.4-6.4h0.2c0,0,0,0,0.1,0s0.1,0,0.2,0l0,0
		c0.1,0,0.2,0,0.2,0l0,0c0.1,0,0.2,0,0.3,0c1.6,0.3,3,1.1,4,2.3l-1.3,1.3c-0.8-1.1-2.2-1.9-3.7-1.9c-0.6,0-1.2,0.1-1.7,0.3l-0.1,0.1
		l0,0c-0.2,0.1-0.4,0.2-0.6,0.3l0,0c-0.2,0.1-0.4,0.3-0.5,0.4l0,0l-0.1,0.1l-0.2,0.2l0,0l-0.1,0.1l0,0l-0.1,0.1l-0.1,0.1
		c0,0.1-0.1,0.1-0.1,0.2v0.1l-0.1,0.1c0,0,0,0.1-0.1,0.1v0.1l-0.1,0.1v0.1c0,0.1-0.1,0.1-0.1,0.2v0.1l-0.1,0.1v0.1l-0.1,0.1v0.1
		l-0.1,0.2c0,0,0,0,0,0.1v0.1c0,0,0,0,0,0.1s0,0.1,0,0.2v0.1c0,0.1,0,0.1,0,0.2s0,0.1,0,0.2v0.1v0.1v0.1c0,0.1,0,0.1,0,0.2
		c0,2.5,2.1,4.6,4.6,4.6c0.1,0,0.1,0,0.2,0l0,0c0.1,0,0.1,0,0.2,0l0,0c0.1,0,0.1,0,0.2,0c0.1,0,0.1,0,0.2,0l0,0c0.1,0,0.1,0,0.2,0
		l0,0l0.2-0.1l0,0l0.2-0.1l0,0l0.2-0.1l0,0l0.2-0.1c0,0,0,0,0.1,0l0.1-0.1c0,0,0,0,0.1,0s0.1-0.1,0.1-0.1h0.1c0,0,0.1,0,0.1-0.1
		c0,0,0.1,0,0.1-0.1l0.1-0.1c0,0,0,0,0.1,0l0.1-0.1c0,0,0.1,0,0.1-0.1c0,0,0,0,0.1-0.1l0.1-0.1l0.1-0.1c0,0,0.1,0,0.1-0.1l0.1-0.1
		c0,0,0.1,0,0.1-0.1l0,0c0-0.1,0.1-0.1,0.1-0.1v-0.1c0,0,0-0.1,0.1-0.1c0.4-0.5,0.7-1.1,0.8-1.8h-4.6v-1.8h6V297.6z"/>
	<path fill="#5B676E" d="M-215.5,305v-12.6h1.8V305H-215.5z"/>
	<path fill="#5B676E" d="M-205.8,292.4h9.1v1.9h-7.2v3.5h7.2v1.8h-7.2v3.5h7.2v1.9h-9.1V292.4z"/>
	<path fill="#5B676E" d="M-187.2,295.8c0,0.5,0.2,1,0.7,1.2c0.4,0.2,1.1,0.5,2.3,0.8c1.3,0.3,2.3,0.8,2.9,1.3
		c0.6,0.5,0.9,1.2,0.9,2.2l0,0c0,1.1-0.4,2-1.2,2.7c-0.8,0.6-1.9,1-3.2,1c-1.9,0-3.5-0.6-5-1.7l1.4-1.4c1.2,0.9,2.4,1.3,3.6,1.3
		c0.6,0,1.1-0.1,1.5-0.4c0.4-0.3,0.6-0.7,0.6-1.1l0,0c0-0.5-0.2-0.9-0.7-1.1c-0.4-0.3-1.1-0.5-2.2-0.8c-0.7-0.2-1.3-0.4-1.7-0.5
		c-0.4-0.2-0.8-0.4-1.2-0.7c-0.4-0.3-0.6-0.6-0.8-1s-0.3-0.9-0.3-1.4l0,0c0-1,0.4-1.9,1.1-2.5c0.8-0.6,1.8-1,3-1
		c1.6,0,3.1,0.5,4.3,1.3l-1.4,1.4c-1-0.6-2-0.9-2.9-0.9c-0.6,0-1.1,0.1-1.4,0.4C-187,295-187.2,295.3-187.2,295.8L-187.2,295.8z"/>
</g>
</svg>
