<?xml version="1.0" encoding="utf-8"?>
<!-- Generator: Adobe Illustrator 18.1.1, SVG Export Plug-In . SVG Version: 6.00 Build 0)  -->
<svg version="1.1" id="Layer_1" xmlns="http://www.w3.org/2000/svg" xmlns:xlink="http://www.w3.org/1999/xlink" x="0px" y="0px"
	 width="200px" height="55px" viewBox="0 0 200 55" enable-background="new 0 0 200 55" xml:space="preserve">
<g>
	<path fill="#FFFFFF" d="M46.2,3.1v25.1h-3.7V8.9L35,20.6h-3.1L24.4,8.9v19.2h-3.7V3.1h4.2v0h0.2l8.3,13l8.3-13H46.2z"/>
	<path fill="#FFFFFF" d="M60.1,15.3c0-7.1,5.7-12.8,12.9-12.8c7.1,0,12.8,5.7,12.8,12.8c0,7.1-5.7,12.9-12.8,12.9
		C65.8,28.2,60.1,22.4,60.1,15.3z M63.7,15.3c0,5.1,4.1,9.2,9.2,9.2c5,0,9.2-4.1,9.2-9.2c0-5-4.1-9.2-9.2-9.2
		C67.9,6.1,63.7,10.2,63.7,15.3z"/>
	<path fill="#FFFFFF" d="M118,9.9c-1.7-2.3-4.4-3.8-7.4-3.8c-5.1,0-9.2,4.1-9.2,9.2c0,5.1,4.1,9.2,9.2,9.2c3,0,5.7-1.5,7.4-3.8
		l2.7,2.7c-2.4,2.9-6,4.8-10,4.8c-7.1,0-12.9-5.7-12.9-12.9c0-7.1,5.7-12.8,12.9-12.8c4,0,7.7,1.9,10,4.8L118,9.9z"/>
	<path fill="#FFFFFF" d="M126.6,28.2l14.5-25l14.5,25H126.6z M133,24.5h16.2l-8.1-14L133,24.5z"/>
	<path fill="#FFFFFF" d="M163.5,28.2V3.1h3.7v21.4h14v3.7H163.5z"/>
	<path fill="#FFFFFF" d="M1.4,41.3v-1.9h10.4v1.9H7.5V52H5.7V41.3H1.4z"/>
	<path fill="#FFFFFF" d="M18.7,39.4h9.1v1.9h-7.2v3.5h7.2v1.8h-7.2v3.5h7.2V52h-9.1V39.4z"/>
	<path fill="#FFFFFF" d="M44.9,42.8c-0.8-1.1-2.2-1.9-3.7-1.9c-2.5,0-4.6,2.1-4.6,4.6c0,2.5,2.1,4.6,4.6,4.6c1.5,0,2.9-0.8,3.7-1.9
		l1.3,1.3c-1.2,1.5-3,2.4-5,2.4c-3.6,0-6.4-2.9-6.4-6.4c0-3.5,2.9-6.4,6.4-6.4c2,0,3.8,0.9,5,2.4L44.9,42.8z"/>
	<path fill="#FFFFFF" d="M62.1,44.8v-5.4h1.8V52h-1.8v-5.3H55V52h-1.8V39.4H55v5.4H62.1z"/>
	<path fill="#FFFFFF" d="M81.4,39.4h1.8V52h-1.8l-7.8-9.6V52h-1.8V39.4h1.8l7.8,9.6V39.4z"/>
	<path fill="#FFFFFF" d="M90.2,45.5c0-3.5,2.9-6.4,6.4-6.4c3.5,0,6.4,2.9,6.4,6.4c0,3.6-2.9,6.4-6.4,6.4
		C93.1,52,90.2,49.1,90.2,45.5z M92.1,45.5c0,2.5,2.1,4.6,4.6,4.6c2.5,0,4.6-2.1,4.6-4.6c0-2.5-2.1-4.6-4.6-4.6
		C94.1,40.9,92.1,43,92.1,45.5z"/>
	<path fill="#FFFFFF" d="M110,52V39.4h1.8v10.7h7V52H110z"/>
	<path fill="#FFFFFF" d="M124.8,45.5c0-3.5,2.9-6.4,6.4-6.4c3.5,0,6.4,2.9,6.4,6.4c0,3.6-2.9,6.4-6.4,6.4
		C127.7,52,124.8,49.1,124.8,45.5z M126.7,45.5c0,2.5,2.1,4.6,4.6,4.6c2.5,0,4.6-2.1,4.6-4.6c0-2.5-2.1-4.6-4.6-4.6
		C128.7,40.9,126.7,43,126.7,45.5z"/>
	<path fill="#FFFFFF" d="M156.5,44.6c0,0.3,0.1,0.6,0.1,0.9c0,1.5-0.5,2.9-1.4,4c-0.3,0.3-0.5,0.6-0.9,0.9h0l-0.1,0.1
		c-0.1,0-0.1,0.1-0.1,0.1c-0.2,0.1-0.4,0.3-0.6,0.4v0l-0.1,0.1c0,0,0,0,0,0c-0.1,0-0.1,0-0.2,0.1c0,0-0.1,0.1-0.2,0.1
		c0,0-0.1,0.1-0.1,0.1h0l-0.3,0.1h0l-0.1,0.1c0,0,0,0,0,0c0,0-0.1,0-0.1,0h-0.1c0,0-0.1,0-0.1,0c0,0,0,0,0,0c0,0-0.1,0-0.1,0h-0.1
		c0,0-0.1,0-0.1,0c0,0,0,0,0,0l-0.3,0.1c0,0,0,0-0.1,0c0,0-0.1,0-0.1,0c0,0,0,0-0.1,0c0,0-0.1,0-0.1,0h-0.1c0,0-0.1,0-0.1,0h-0.1
		c0,0-0.1,0-0.1,0h-0.1c0,0-0.1,0-0.1,0h-0.1c-0.1,0-0.1,0-0.2,0c-3.6,0-6.4-2.9-6.4-6.4c0-3.5,2.9-6.4,6.4-6.4h0.2c0,0,0,0,0.1,0
		c0.1,0,0.1,0,0.2,0h0c0.1,0,0.2,0,0.2,0h0c0.1,0,0.2,0,0.3,0c1.6,0.3,3,1.1,4,2.3l-1.3,1.3c-0.8-1.1-2.2-1.9-3.7-1.9
		c-0.6,0-1.2,0.1-1.7,0.3l-0.1,0.1h0c-0.2,0.1-0.4,0.2-0.6,0.3h0c-0.2,0.1-0.4,0.3-0.5,0.4l0,0c0,0-0.1,0.1-0.1,0.1l-0.2,0.2l0,0
		c0,0-0.1,0.1-0.1,0.1l0,0c0,0-0.1,0.1-0.1,0.1l-0.1,0.1c0,0.1-0.1,0.1-0.1,0.2c0,0,0,0.1,0,0.1l-0.1,0.1c0,0,0,0.1-0.1,0.1
		c0,0,0,0.1,0,0.1l-0.1,0.1c0,0,0,0.1,0,0.1c0,0.1-0.1,0.1-0.1,0.2c0,0,0,0.1,0,0.1l-0.1,0.1c0,0,0,0.1,0,0.1l-0.1,0.1
		c0,0,0,0.1,0,0.1l-0.1,0.2c0,0,0,0,0,0.1c0,0,0,0.1,0,0.1c0,0,0,0,0,0.1c0,0.1,0,0.1,0,0.2v0.1c0,0.1,0,0.1,0,0.2
		c0,0.1,0,0.1,0,0.2l0,0.1c0,0,0,0.1,0,0.1v0.1c0,0.1,0,0.1,0,0.2c0,2.5,2.1,4.6,4.6,4.6c0.1,0,0.1,0,0.2,0h0c0.1,0,0.1,0,0.2,0
		c0,0,0,0,0,0c0.1,0,0.1,0,0.2,0c0.1,0,0.1,0,0.2,0h0c0.1,0,0.1,0,0.2,0c0,0,0,0,0,0l0.2-0.1h0l0.2-0.1c0,0,0,0,0,0l0.2-0.1
		c0,0,0,0,0,0l0.2-0.1c0,0,0,0,0.1,0l0.1-0.1c0,0,0,0,0.1,0c0.1,0,0.1-0.1,0.1-0.1c0,0,0.1,0,0.1,0c0,0,0.1,0,0.1-0.1
		c0,0,0.1,0,0.1-0.1l0.1-0.1c0,0,0,0,0.1,0l0.1-0.1c0,0,0.1,0,0.1-0.1c0,0,0,0,0.1-0.1c0,0,0.1-0.1,0.1-0.1l0.1-0.1
		c0,0,0.1,0,0.1-0.1c0,0,0.1-0.1,0.1-0.1c0,0,0.1,0,0.1-0.1c0,0,0,0,0,0c0-0.1,0.1-0.1,0.1-0.1l0-0.1c0,0,0-0.1,0.1-0.1
		c0.4-0.5,0.7-1.1,0.8-1.8h-4.6v-1.8H156.5z"/>
	<path fill="#FFFFFF" d="M163.5,52V39.4h1.8V52H163.5z"/>
	<path fill="#FFFFFF" d="M173.2,39.4h9.1v1.9h-7.2v3.5h7.2v1.8h-7.2v3.5h7.2V52h-9.1V39.4z"/>
	<path fill="#FFFFFF" d="M191.8,42.8c0,0.5,0.2,1,0.7,1.2c0.4,0.2,1.1,0.5,2.3,0.8c1.3,0.3,2.3,0.8,2.9,1.3c0.6,0.5,0.9,1.2,0.9,2.2
		v0c0,1.1-0.4,2-1.2,2.7c-0.8,0.6-1.9,1-3.2,1c-1.9,0-3.5-0.6-5-1.7l1.4-1.4c1.2,0.9,2.4,1.3,3.6,1.3c0.6,0,1.1-0.1,1.5-0.4
		c0.4-0.3,0.6-0.7,0.6-1.1v0c0-0.5-0.2-0.9-0.7-1.1c-0.4-0.3-1.1-0.5-2.2-0.8c-0.7-0.2-1.3-0.4-1.7-0.5c-0.4-0.2-0.8-0.4-1.2-0.7
		c-0.4-0.3-0.6-0.6-0.8-1c-0.2-0.4-0.3-0.9-0.3-1.4v0c0-1,0.4-1.9,1.1-2.5c0.8-0.6,1.8-1,3-1c1.6,0,3.1,0.5,4.3,1.3l-1.4,1.4
		c-1-0.6-2-0.9-2.9-0.9c-0.6,0-1.1,0.1-1.4,0.4C192,42,191.8,42.3,191.8,42.8L191.8,42.8z"/>
</g>
</svg>
