<?xml version="1.0" encoding="utf-8"?>
<!-- Generator: Adobe Illustrator 18.1.1, SVG Export Plug-In . SVG Version: 6.00 Build 0)  -->
<svg version="1.1" id="Layer_1" xmlns="http://www.w3.org/2000/svg" xmlns:xlink="http://www.w3.org/1999/xlink" x="0px" y="0px"
	 width="49px" height="49px" viewBox="-75 26 49 49" enable-background="new -75 26 49 49" xml:space="preserve">
<g>
	<path fill="#667E8C" d="M-27.5,69.9l-11-11c-0.9-0.9-2.3-1.1-3.4-0.6l-3-3c2.7-3,4.3-6.9,4.3-11.3c0-9.4-7.6-17-17-17
		c-9.4,0-17,7.6-17,17s7.6,17,17,17c4.3,0,8.3-1.6,11.3-4.3l3,3c-0.5,1.1-0.3,2.5,0.6,3.4l11,11c0.6,0.6,1.3,0.9,2.1,0.9
		s1.6-0.3,2.1-0.9C-26.3,73-26.3,71-27.5,69.9z M-57.6,59.1c-8.4,0-15.1-6.8-15.1-15.1s6.7-15.1,15.1-15.1s15.1,6.8,15.1,15.1
		S-49.3,59.1-57.6,59.1z M-28.8,72.8c-0.2,0.2-0.5,0.3-0.8,0.3s-0.6-0.1-0.8-0.3l-11-11c-0.4-0.4-0.4-1.1,0-1.6
		c0.2-0.2,0.5-0.3,0.8-0.3s0.6,0.1,0.8,0.3l11,11C-28.4,71.7-28.4,72.3-28.8,72.8z"/>
	<path fill="#667E8C" d="M-50.3,41.2c-1.3-1.2-3.7-2.7-7.4-2.7c-6.3,0-9.3,5.2-9.4,5.4c-0.1,0.2-0.1,0.5,0,0.8
		c0.1,0.2,3.1,5.8,9.4,5.8c7,0,9.4-5.8,9.5-5.9c0.1-0.2,0.1-0.4,0-0.6C-48.2,43.8-48.8,42.5-50.3,41.2z M-60.8,40.7
		c2-0.8,4.3-0.7,6.2-0.1c0.5,0.7,0.8,1.5,0.8,2.3c0,2.1-1.7,3.8-3.8,3.8c-2.1,0-3.8-1.7-3.8-3.8C-61.4,42.1-61.2,41.4-60.8,40.7z
		 M-57.6,48.8c-4.4,0-6.9-3.3-7.7-4.5c0.4-0.5,1.1-1.5,2.3-2.3c-0.1,0.3-0.1,0.6-0.1,0.9c0,3,2.5,5.5,5.5,5.5s5.5-2.5,5.5-5.5
		c0-0.4,0-0.8-0.1-1.2c1.3,0.9,2.1,2,2.4,2.6C-50.4,45.5-52.7,48.8-57.6,48.8z"/>
</g>
</svg>
