<?xml version="1.0" encoding="utf-8"?>
<!-- Generator: Adobe Illustrator 18.1.1, SVG Export Plug-In . SVG Version: 6.00 Build 0)  -->
<svg version="1.1" id="Layer_1" xmlns="http://www.w3.org/2000/svg" xmlns:xlink="http://www.w3.org/1999/xlink" x="0px" y="0px"
	 width="56px" height="50px" viewBox="-71 26 56 50" enable-background="new -71 26 56 50" xml:space="preserve">
<g>
	<rect x="-31.8" y="71.6" fill="#667E8C" width="9" height="3"/>
	<polygon fill="#667E8C" points="-41.8,66.6 -44.8,66.6 -44.8,71.6 -49.8,71.6 -49.8,74.6 -36.8,74.6 -36.8,71.6 -41.8,71.6 	"/>
	<rect x="-63.8" y="71.6" fill="#667E8C" width="9" height="3"/>
	<path fill="#667E8C" d="M-22.9,39.8l-0.5-0.3l-0.1-0.6c-1.3-7-7.5-12-14.6-12c-4.4,0-8.5,1.9-11.3,5.2l-0.5,0.6l-0.7-0.2
		c-0.7-0.2-1.4-0.3-2.2-0.3c-3.8,0-7.2,2.5-8.2,6.1l-0.2,0.6l-0.6,0.2c-4.8,1.4-8.1,6-8.1,11c0,6.3,5.2,11.5,11.5,11.5h30.6
		c6.3,0,11.4-5.2,11.4-11.5C-16.5,45.7-18.9,41.7-22.9,39.8z M-27.8,58.6h-30.7c-4.6,0-8.4-3.8-8.4-8.3c0-4.8,3.6-8.7,8.2-8.7l0,0
		c0-2,0.4-2.6,1.1-3.6c1.2-1.6,3.3-2.7,5.4-2.7c1.2,0,2.4,0.3,3.3,1c1.4-2.3,4.5-6.3,10.8-6.3c5.5,0,11.2,3.6,11.8,11.6
		c3.4,0.5,6.7,3.3,6.7,8.6C-19.5,54.7-23.3,58.6-27.8,58.6z"/>
</g>
</svg>
