<?xml version="1.0" encoding="utf-8"?>
<!-- Generator: Adobe Illustrator 18.1.1, SVG Export Plug-In . SVG Version: 6.00 Build 0)  -->
<svg version="1.1" id="Layer_1" xmlns="http://www.w3.org/2000/svg" xmlns:xlink="http://www.w3.org/1999/xlink" x="0px" y="0px"
	 width="68px" height="49px" viewBox="-65 26 68 49" enable-background="new -65 26 68 49" xml:space="preserve">
<path fill="#667E8C" d="M1.7,55.6c-0.1-0.3-0.4-0.4-0.7-0.4H0.1v-0.1l-10.7-24.3v-0.1c0-0.1,0-0.1,0-0.2c0-0.4-0.4-0.8-0.8-0.8
	h-18.9v-2.9c0-0.4-0.4-0.8-0.8-0.8s-0.8,0.4-0.8,0.8v2.9h-18.9c-0.4,0-0.8,0.4-0.8,0.8c0,0.1,0,0.1,0,0.2v0.1l0,0l-10.7,24.3h-0.9
	c-0.3,0-0.6,0.2-0.7,0.4c-0.1,0.3-0.1,0.6,0,0.8c1.4,2.3,6.7,4.7,13.1,4.7s11.7-2.4,13.1-4.6c0.1-0.2,0.2-0.6,0-0.8
	c-0.1-0.3-0.4-0.4-0.7-0.4h-0.9v-0.1l-10.5-23.7h17.9v38.1H-32l-6.5,2.6c-0.4,0.2-0.6,0.6-0.5,1.1c0.2,0.4,0.6,0.6,1.1,0.5l6.7-2.7
	l6.7,2.7c0.1,0,0.2,0.1,0.3,0.1c0.3,0,0.6-0.2,0.8-0.5c0.2-0.4,0-0.9-0.5-1.1l-6.5-2.6V31.4h17.9l-0.1,0.2l-10.2,23.5h-0.9
	c-0.3,0-0.6,0.2-0.7,0.4c-0.1,0.3-0.1,0.6,0,0.8c1.3,2.2,6.7,4.6,13.1,4.6s11.7-2.4,13.1-4.6C1.9,56.1,1.9,55.8,1.7,55.6z M-40.9,57
	c-1,0.6-4.5,2.4-9.9,2.4s-9-1.8-9.9-2.4l-0.4-0.2h20.7L-40.9,57z M-41.1,55.1h-19.4l0.1-0.1l9.6-21.9L-41.1,55.1z M-21,55l9.6-21.9
	l9.7,22L-21,55L-21,55z M-1.4,57c-1,0.6-4.5,2.4-9.9,2.4s-9-1.8-9.9-2.4l-0.4-0.2H-1L-1.4,57z"/>
</svg>
