<?xml version="1.0" encoding="utf-8"?>
<!-- Generator: Adobe Illustrator 18.1.1, SVG Export Plug-In . SVG Version: 6.00 Build 0)  -->
<svg version="1.1" id="Layer_1" xmlns="http://www.w3.org/2000/svg" xmlns:xlink="http://www.w3.org/1999/xlink" x="0px" y="0px"
	 width="52px" height="62px" viewBox="-73 20 52 62" enable-background="new -73 20 52 62" xml:space="preserve">
<g>
	<path fill="#667E8C" d="M-46,81.5h-2.1l0,0c-14.2-0.3-22.6-5.6-22.9-5.9l-0.3-0.2l-0.1-0.3c-0.6-1.6-0.6-5-0.6-5.4
		c-0.4-5.3,1.6-9,5.4-9.9C-60.9,58.3-56.1,55-56,55l1.2-0.9l4.6,14.6l0.8-2.1c-1.8-2.6-2.3-4.6-1.5-6.1c0.9-1.8,3.3-2,4-2h0.2
		c0.7,0,3,0.1,4,2c0.8,1.5,0.3,3.5-1.5,6.1l0.8,2.1l4.3-14.7l1.2,0.9c0,0,4.8,3.4,10.6,4.8c3.7,0.9,5.7,4.5,5.4,9.7v0.2
		c0,0.4,0,3.8-0.6,5.4l-0.1,0.3l-0.3,0.2C-23.3,75.8-31.7,81.2-46,81.5L-46,81.5z M-47,80L-47,80v-0.7c12.7,0,20.9-4.4,22.5-5.3
		c0.2-0.7,0.3-1.9,0.3-2.9h-0.1l0.1-1.5c0.2-2.5-0.1-6.8-3.7-7.7c-4.4-1.1-8.2-3.2-10-4.3l-5.7,18l-3.3-9.4l0.3-0.5
		c2.1-2.9,1.8-4,1.6-4.3c-0.3-0.6-1.4-0.8-2-0.8h-0.1l0,0c-0.6,0-1.7,0.2-2,0.8c-0.1,0.3-0.4,1.4,1.6,4.3l0.3,0.5l-3.3,9.3l-0.5-1.9
		l0,0l-1.7-5.4l-3.4-10.7c-1.9,1.1-5.6,3.2-10,4.3c-3.6,0.9-3.9,5.2-3.7,7.7c0,1.2,0.1,3.3,0.3,4.4c1.7,1,9.9,5.3,22.5,5.3V80z
		 M-46.9,56.9c-4,0-6.9-2.2-7-2.3c-2.2-1.7-3.6-4.3-4.3-7.4c-1.1-0.3-2-1.8-2.7-4.7c-0.7-2.6-0.6-4.3,0.1-5.3
		c0.2-0.3,0.5-0.5,0.9-0.7c-0.5-2.6-1.1-8.9,3.6-12.6c-0.3-0.5-0.6-1.3-0.6-2.2l0.1-1.1l1.1,0.1c0,0,3,0.3,5.9,0.3l0,0
		c1.5,0,2.6-0.1,3.4-0.2c0.4-0.1,0.8-0.1,1.3-0.1h0.2c2.8,0.1,5.6,2,6.6,4.3c0.9,0.1,2.2,0.6,3.3,1.9c1.6,2,1.9,5.2,1,9.6
		c0.3,0.1,0.6,0.4,0.9,0.7c0.8,1,0.8,2.7,0.1,5.3c-0.8,3.1-1.7,4.5-2.8,4.8c-0.7,3-2.1,5.5-4.2,7.2C-42.2,56.1-44.5,56.9-46.9,56.9z
		 M-56.5,44l0.3,1.8c0.5,3.1,1.8,5.4,3.7,7c0,0,2.4,1.9,5.6,1.9c1.9,0,3.8-0.7,5.5-2c1.9-1.6,3.1-3.9,3.6-7l0.3-2l1.2,1.1
		c0.2-0.3,0.6-1.1,1.1-3c0.7-2.8,0.3-3.3,0.3-3.4c-0.1,0-0.2,0-0.2,0l-1.6,0.3l0.3-1.7c1.3-5.4,0.5-7.8-0.4-8.9
		c-0.8-1-1.9-1.1-2.3-1.1l-0.9,0.2l-0.2-0.9c-0.3-1.5-2.5-3.4-4.8-3.4h-0.1c-0.3,0-0.6,0-0.8,0.1c-0.9,0.2-2.2,0.3-3.8,0.3
		c-1.6,0-3.3-0.1-4.5-0.2c0.1,0.1,0.2,0.1,0.2,0.1l1.2,1l-1.3,0.8c-5.8,3.6-3.5,11.7-3.4,12v0.2v1.6l-1.5-0.3l0,0
		c-0.1,0-0.5,0.6,0.2,3.3c0.5,1.9,0.9,2.7,1.1,3L-56.5,44z"/>
</g>
</svg>
