<?xml version="1.0" encoding="utf-8"?>
<!-- Generator: Adobe Illustrator 18.1.1, SVG Export Plug-In . SVG Version: 6.00 Build 0)  -->
<svg version="1.1" id="Layer_1" xmlns="http://www.w3.org/2000/svg" xmlns:xlink="http://www.w3.org/1999/xlink" x="0px" y="0px"
	 width="66px" height="46px" viewBox="-66 28 66 46" enable-background="new -66 28 66 46" xml:space="preserve">
<g>
	<path fill="#667E8C" d="M-3,49.5c-2.8-10.6-6-17.6-13.4-19.6c-1.1-0.3-2.2-0.5-3.2-0.5c-2.2,0-4,0.7-5.8,1.3
		c-1.6,0.6-3.4,1.3-5.8,1.5c-0.5,0.1-1.2,0.1-1.8,0.1l0,0c-3.4,0-5.6-0.8-7.5-1.6c-1.7-0.6-3.5-1.3-5.7-1.3c-1.1,0-2.1,0.1-3.2,0.5
		c-7.6,2-10.8,9-13.6,19.6c-3.2,12.3-2.3,20.5,2.5,22.6c0.8,0.3,1.6,0.5,2.4,0.5c4.2,0,8.1-4.5,11-7.7l0.8-0.9
		c2.3-2.7,7.2-4.3,13.3-4.3c6.7,0,10.8,1.3,13.3,4.3l0.8,0.9c2.8,3.3,6.7,7.7,11,7.7c0.8,0,1.7-0.2,2.4-0.5C-0.7,70,0.2,61.8-3,49.5
		z M-6.5,69.8C-7,70-7.4,70.1-7.9,70.1c-3.1,0-6.6-4-9.1-6.9l-0.8-0.9c-3-3.5-7.7-5.1-15.2-5.1c-6.9,0-12.4,1.9-15.2,5.1l-0.8,1
		c-2.5,2.9-6,6.9-9.1,6.9c-0.5,0-1-0.1-1.4-0.3c-3.3-1.5-3.8-9.4-1-19.7c2.5-9.9,5.3-16.3,11.5-18c1-0.2,1.8-0.3,2.6-0.3
		c1.8,0,3.3,0.6,4.9,1.2c2.2,0.8,4.6,1.7,8.5,1.7s6.3-0.9,8.5-1.7c1.6-0.6,3.1-1.2,4.9-1.2c0.8,0,1.7,0.1,2.6,0.4
		c6.2,1.7,9.1,8.1,11.6,17.8C-2.7,60.4-3.1,68.4-6.5,69.8z"/>
	<path fill="#667E8C" d="M-51.9,47.1h4.3v4.4c0,0.6,0.6,1.2,1.2,1.2c0.7,0,1.2-0.5,1.2-1.2v-4.4h4.4c0.6,0,1.2-0.6,1.2-1.2
		c0-0.6-0.5-1.2-1.2-1.2h-4.4v-4.4c0-0.6-0.6-1.2-1.2-1.2s-1.2,0.5-1.2,1.2v4.4h-4.3c-0.6,0-1.2,0.6-1.2,1.2
		C-53.1,46.5-52.5,47.1-51.9,47.1z"/>
	<path fill="#667E8C" d="M-18.7,39c-1.1,0-2,0.9-2,2s0.9,2,2,2s2-0.9,2-2S-17.6,39-18.7,39z"/>
	<path fill="#667E8C" d="M-18.7,48.8c-1.1,0-2,0.9-2,2s0.9,2,2,2s2-0.9,2-2S-17.6,48.8-18.7,48.8z"/>
	<path fill="#667E8C" d="M-23.6,43.9c-1.1,0-2,0.9-2,2c0,1.1,0.9,2,2,2s2-0.9,2-2C-21.6,44.8-22.5,43.9-23.6,43.9z"/>
	<path fill="#667E8C" d="M-13.8,43.9c-1.1,0-2,0.9-2,2c0,1.1,0.9,2,2,2s2-0.9,2-2C-11.8,44.8-12.7,43.9-13.8,43.9z"/>
</g>
</svg>
