<?xml version="1.0" encoding="utf-8"?>
<!-- Generator: Adobe Illustrator 18.1.1, SVG Export Plug-In . SVG Version: 6.00 Build 0)  -->
<svg version="1.1" id="Layer_1" xmlns="http://www.w3.org/2000/svg" xmlns:xlink="http://www.w3.org/1999/xlink" x="0px" y="0px"
	 width="42px" height="68px" viewBox="-78 17 42 68" enable-background="new -78 17 42 68" xml:space="preserve">
<g>
	<path fill="#667E8C" d="M-65,26h15.8c0.6,0,1-0.4,1-1s-0.4-1-1-1H-65c-0.6,0-1,0.4-1,1S-65.5,26-65,26z"/>
	<path fill="#667E8C" d="M-57.1,74.9c-1.8,0-3.3,1.5-3.3,3.3c0,1.8,1.5,3.3,3.3,3.3c1.8,0,3.3-1.5,3.3-3.3
		C-53.8,76.4-55.3,74.9-57.1,74.9z M-57.1,79.4c-0.7,0-1.3-0.6-1.3-1.3c0-0.7,0.6-1.3,1.3-1.3c0.7,0,1.3,0.6,1.3,1.3
		C-55.8,78.8-56.4,79.4-57.1,79.4z"/>
	<path fill="#667E8C" d="M-36.9,23.9c0-3.7-3-6.6-6.6-6.6h-27.1c-3.7,0-6.6,3-6.6,6.6v54.2c0,3.7,3,6.6,6.6,6.6h27.1
		c3.7,0,6.6-3,6.6-6.6V23.9z M-59.7,58.5c-0.7,0.7-0.9,1.7-0.7,2.6c-0.3-0.1-0.8-0.1-1,0.2c-0.3,0.3-0.8,0.3-1.2,0
		c-0.2-0.2-0.2-0.4-0.2-0.6c0-0.2,0.1-0.4,0.2-0.6c0.2-0.2,0.3-0.4,0.3-0.7s-0.1-0.5-0.3-0.7s-0.4-0.3-0.7-0.3
		c-0.3,0-0.5,0.1-0.7,0.3c-0.3,0.3-0.8,0.3-1.2,0c-0.2-0.2-0.2-0.4-0.2-0.6s0.1-0.4,0.2-0.6c0.2-0.2,0.3-0.4,0.3-0.7
		s-0.1-0.5-0.3-0.7c-0.4-0.4-1-0.4-1.4,0c-0.3,0.3-0.8,0.3-1.2,0c-0.2-0.2-0.2-0.4-0.2-0.6c0-0.2,0.1-0.4,0.2-0.6l6.1-6.1
		c0.5-0.4,1.3-0.3,1.8,0.1l2.2,2.2c0.7,0.7,1.6,1.1,2.6,1.1c0.9,0,1.7-0.3,2.3-0.9c-0.2,0.4-0.3,0.7-0.4,1.2
		c-0.7,0.1-1.3,0.3-1.7,0.8c-0.5,0.5-0.7,1.1-0.8,1.7c-0.7,0.1-1.3,0.3-1.7,0.8c-0.5,0.5-0.7,1.1-0.8,1.7
		C-58.6,57.8-59.2,58-59.7,58.5z M-58.6,63.5l-0.4,0.3c-0.3,0.3-0.8,0.3-1.2,0c-0.3-0.3-0.3-0.8,0-1.2c0.1-0.1,0.2-0.3,0.2-0.4
		c0.1,0.1,0.1,0.1,0.2,0.2L-58.6,63.5z M-75.3,44.6l6.2-6.2l2.4,2.4l-6.6,6.6c-0.5,0.5-1.3,0.7-2,0.4
		C-75.3,47.8-75.3,44.6-75.3,44.6z M-66.3,43.2c0.6,0.4,1.3,0.6,2.1,0.6c1,0,1.9-0.4,2.6-1.1c0.6-0.6,1.8-0.6,2.4,0l6.4,6.4
		l-0.9,0.9c-0.6,0.6-1.8,0.6-2.4,0l-2.2-2.2c-0.4-0.4-1-0.7-1.6-0.9c-0.3-0.1-0.7-0.1-1-0.1c-0.7,0.1-1.3,0.3-1.8,0.7
		c-0.1,0.1-0.2,0.2-0.3,0.3l-4.4,4.2l-3.9-3.9L-66.3,43.2z M-58.3,59.9c0.2-0.2,0.4-0.2,0.6-0.2c0.2,0,0.4,0.1,0.6,0.2l3,3
		c0.3,0.3,0.3,0.8,0,1.2c-0.3,0.3-0.8,0.3-1.2,0l-3-3C-58.7,60.7-58.7,60.2-58.3,59.9z M-55.8,58.5c-0.2-0.2-0.2-0.4-0.2-0.6
		c0-0.2,0.1-0.4,0.2-0.6s0.4-0.2,0.6-0.2c0.2,0,0.4,0.1,0.6,0.2l3,3c0.2,0.2,0.2,0.4,0.2,0.6c0,0.2-0.1,0.4-0.2,0.6
		c-0.3,0.3-0.8,0.3-1.2,0L-55.8,58.5z M-53.3,56c-0.2-0.2-0.2-0.4-0.2-0.6c0-0.2,0.1-0.4,0.2-0.6c0.2-0.2,0.4-0.2,0.6-0.2
		c0.2,0,0.4,0.1,0.6,0.2l3,3c0.2,0.2,0.2,0.4,0.2,0.6c0,0.2-0.1,0.4-0.2,0.6c-0.3,0.3-0.8,0.3-1.2,0L-53.3,56z M-50.8,53.5
		c-0.3-0.3-0.3-0.8,0-1.2c0.2-0.2,0.4-0.2,0.6-0.2c0.2,0,0.4,0.1,0.6,0.2l3,3c0.3,0.3,0.3,0.8,0,1.2c-0.3,0.3-0.8,0.3-1.2,0
		L-50.8,53.5z M-47.2,52l-1.1-1c-0.5-0.5-1.2-0.8-1.9-0.8c-0.5,0-0.9,0.1-1.3,0.3l0.7-0.7c0.2-0.2,0.3-0.4,0.3-0.7s-0.1-0.5-0.3-0.7
		l-5.1-5.1l0.3-0.3c0.6-0.6,1.8-0.6,2.4,0c0.7,0.7,1.6,1.1,2.6,1.1c0.7,0,1.5-0.2,2.1-0.6l5,5L-47.2,52z M-48.1,41.1l2.4-2.4
		l6.9,6.9v2.2c-0.7,0.7-2,0.7-2.7,0L-48.1,41.1z M-70.6,19.2h27.1c2.6,0,4.6,2.1,4.6,4.6v4.6h-36.4v-4.5
		C-75.3,21.3-73.2,19.2-70.6,19.2z M-75.3,30.5h36.4v12.3l-6.1-6.2c-0.4-0.4-1-0.4-1.4,0l-3.8,3.8c-0.2,0.2-0.3,0.4-0.3,0.7
		c0,0.3,0.1,0.5,0.3,0.7L-50,42c-0.6,0.3-1.4,0.1-1.8-0.4c-0.7-0.7-1.6-1.1-2.6-1.1s-1.9,0.4-2.6,1.1l-0.3,0.3l-0.6-0.6
		c-0.7-0.7-1.6-1.1-2.6-1.1s-1.9,0.4-2.6,1.1c-0.5,0.5-1.2,0.6-1.8,0.4l0.2-0.2c0.2-0.2,0.3-0.4,0.3-0.7c0-0.3-0.1-0.5-0.3-0.7
		l-3.8-3.8c-0.4-0.4-1-0.4-1.4,0l-5.5,5.5L-75.3,30.5L-75.3,30.5z M-74.7,49.9c0.7,0,1.4-0.2,2-0.5l4,4l-0.3,0.3
		c-1.1,1.1-1.1,2.8,0,3.9c0.5,0.5,1.1,0.7,1.7,0.8c0.1,0.7,0.3,1.3,0.8,1.7c0.5,0.5,1.1,0.7,1.7,0.8c0.1,0.7,0.3,1.3,0.8,1.7
		c0.5,0.5,1.1,0.7,1.7,0.8c0.1,0.7,0.3,1.3,0.8,1.7c0.5,0.5,1.2,0.8,1.9,0.8c0.7,0,1.4-0.3,1.9-0.8l0.3-0.3l0.6,0.6
		c0.5,0.5,1.2,0.8,1.9,0.8s1.4-0.3,1.9-0.8s0.7-1.1,0.8-1.7c0.7-0.1,1.3-0.3,1.7-0.8c0.5-0.5,0.7-1.1,0.8-1.7
		c0.7-0.1,1.3-0.3,1.7-0.8c0.5-0.5,0.7-1.1,0.8-1.7c0.7-0.1,1.3-0.3,1.7-0.8c1.1-1.1,1.1-2.8,0-3.9l-0.6-0.6l3.7-3.7
		c0.6,0.3,1.3,0.5,2,0.5c0.5,0,0.9-0.1,1.3-0.2v21.5h-36.2V49.9C-75.1,49.9-74.9,49.9-74.7,49.9z M-43.5,82.8h-27.1
		c-2.6,0-4.6-2.1-4.6-4.6v-4.6h36.4v4.6C-38.9,80.7-40.9,82.8-43.5,82.8z"/>
</g>
</svg>
