<?xml version="1.0" encoding="utf-8"?>
<!-- Generator: Adobe Illustrator 18.1.1, SVG Export Plug-In . SVG Version: 6.00 Build 0)  -->
<svg version="1.1" id="Layer_1" xmlns="http://www.w3.org/2000/svg" xmlns:xlink="http://www.w3.org/1999/xlink" x="0px" y="0px"
	 width="62px" height="62px" viewBox="-68 20 62 62" enable-background="new -68 20 62 62" xml:space="preserve">
<g>
	<g>
		<path fill="#667E8C" d="M-55.1,81c-2.8,0-5.1-2.3-5.1-5.1s2.3-5.1,5.1-5.1c2.8,0,5.1,2.3,5.1,5.1S-52.2,81-55.1,81z M-55.1,73
			c-1.6,0-2.9,1.3-2.9,2.9s1.3,2.9,2.9,2.9c1.6,0,2.9-1.3,2.9-2.9S-53.5,73-55.1,73z"/>
	</g>
	<g>
		<path fill="#667E8C" d="M-28.1,81c-2.8,0-5.1-2.3-5.1-5.1s2.3-5.1,5.1-5.1s5.1,2.3,5.1,5.1S-25.2,81-28.1,81z M-28.1,73
			c-1.6,0-2.9,1.3-2.9,2.9s1.3,2.9,2.9,2.9s2.9-1.3,2.9-2.9S-26.5,73-28.1,73z"/>
	</g>
	<g>
		<path fill="#667E8C" d="M-27.1,73h-28c-0.6,0-1.1-0.5-1.1-1.1s0.5-1.1,1.1-1.1H-28l10-41.2c0.1-0.5,0.6-0.8,1.1-0.8h8.8
			c0.6,0,1.1,0.5,1.1,1.1c0,0.6-0.5,1.1-1.1,1.1h-8L-26,72.1C-26.1,72.6-26.6,73-27.1,73z"/>
	</g>
	<g>
		<path fill="#667E8C" d="M-26.1,69h-32.4c-0.5,0-0.9-0.3-1-0.8l-7.6-24c-0.1-0.3,0-0.7,0.2-1c0.2-0.3,0.5-0.4,0.9-0.4h45.8
			c0.6,0,1.1,0.5,1.1,1.1s-0.6,1.1-1.2,1.1h-44.3l6.9,21.8h31.6c0.6,0,1.1,0.5,1.1,1.1C-25,68.5-25.5,69-26.1,69z"/>
	</g>
	<g>
		<path fill="#667E8C" d="M-42.1,41c-0.6,0-1.1-0.5-1.1-1.1v-18c0-0.6,0.5-1.1,1.1-1.1c0.6,0,1.1,0.5,1.1,1.1v18
			C-41,40.5-41.5,41-42.1,41z"/>
	</g>
	<g>
		<path fill="#667E8C" d="M-42.1,41c-0.3,0-0.6-0.1-0.8-0.4l-7-8c-0.4-0.5-0.4-1.2,0.1-1.6c0.5-0.4,1.2-0.4,1.6,0.1l6.2,7.1l6.2-7.1
			c0.4-0.5,1.1-0.5,1.6-0.1s0.5,1.1,0.1,1.6l-7,8C-41.4,40.8-41.7,41-42.1,41z"/>
	</g>
</g>
</svg>
