<?xml version="1.0" encoding="utf-8"?>
<!-- Generator: Adobe Illustrator 18.1.1, SVG Export Plug-In . SVG Version: 6.00 Build 0)  -->
<svg version="1.1" id="Layer_1" xmlns="http://www.w3.org/2000/svg" xmlns:xlink="http://www.w3.org/1999/xlink" x="0px" y="0px"
	 width="60px" height="46px" viewBox="-69 28 60 46" enable-background="new -69 28 60 46" xml:space="preserve">
<g>
	<path fill="#667E8C" d="M-51.6,46.9c-0.5-0.4-1.2-0.3-1.5,0.1l-6.6,7.9c-0.8-4.7,0.2-9.5,2.7-13.7c3-5,7.9-8.7,13.5-10
		c7.2-1.7,14.8,0.8,19.8,6.4c0.4,0.5,1.1,0.5,1.6,0.1s0.5-1.1,0.1-1.6c-5.5-6.2-14-8.9-22.1-7c-6.1,1.5-11.6,5.5-14.9,11
		c-2.3,3.9-3.4,8.2-3.2,12.6l-4.3-6.4c-0.3-0.5-1-0.6-1.5-0.3c-0.5,0.3-0.6,1-0.3,1.5l7,10.5c0.2,0.3,0.5,0.5,0.9,0.5c0,0,0,0,0.1,0
		c0.3,0,0.6-0.1,0.8-0.4l8.1-9.7C-51.1,47.9-51.1,47.2-51.6,46.9z"/>
	<path fill="#667E8C" d="M-9.6,57.1l-7-10.5c-0.2-0.3-0.5-0.5-0.9-0.5c-0.3,0-0.7,0.1-0.9,0.4l-8.1,9.7c-0.4,0.5-0.3,1.2,0.1,1.5
		c0.5,0.4,1.2,0.3,1.5-0.1l6.4-7.7c0.5,9.4-6.3,18.6-15.9,20.8c-6.9,1.6-13.9-0.4-19-5.3c-0.4-0.4-1.1-0.4-1.6,0
		c-0.4,0.4-0.4,1.1,0,1.6c4.3,4.2,9.9,6.5,15.8,6.5c1.7,0,3.5-0.2,5.2-0.6c10.1-2.4,17.4-11.8,17.7-21.6l4.7,7
		c0.2,0.3,0.6,0.5,0.9,0.5c0.2,0,0.4-0.1,0.6-0.2C-9.4,58.3-9.2,57.7-9.6,57.1z"/>
</g>
</svg>
